<?xml version="1.0" encoding="UTF-8" standalone="no"?>
<svg
   width="1028.3142"
   height="177.60793"
   viewBox="0 0 1028.3142 177.60793"
   fill="none"
   version="1.1"
   id="svg536"
   sodipodi:docname="pattern.svg"
   xmlns:inkscape="http://www.inkscape.org/namespaces/inkscape"
   xmlns:sodipodi="http://sodipodi.sourceforge.net/DTD/sodipodi-0.dtd"
   xmlns="http://www.w3.org/2000/svg"
   xmlns:svg="http://www.w3.org/2000/svg">
  <sodipodi:namedview
     id="namedview538"
     pagecolor="#ffffff"
     bordercolor="#000000"
     borderopacity="0.25"
     inkscape:showpageshadow="2"
     inkscape:pageopacity="0.0"
     inkscape:pagecheckerboard="0"
     inkscape:deskcolor="#d1d1d1"
     showgrid="false" />
  <g
     opacity="0.3"
     id="g291"
     transform="translate(-355.68579,-3.65341)"
     inkscape:export-filename="pattern.svg"
     inkscape:export-xdpi="96"
     inkscape:export-ydpi="96">
    <path
       d="m 898.427,76.1948 0.863,-0.3389 c 4.766,-1.871 6.451,-9.5564 3.763,-17.1662 l -18.122,7.1146 c -4.766,1.8709 -6.451,9.5565 -3.764,17.1663 2.688,7.6099 8.731,12.2613 13.497,10.3904 4.765,-1.871 6.45,-9.5563 3.763,-17.1662 z"
       fill="url(#paint0_linear_168_3016)"
       id="path287"
       style="fill:url(#paint0_linear_168_3016)" />
    <path
       d="m 919.689,83.5364 c -2.688,-7.6098 -8.73,-12.2615 -13.496,-10.3905 l -6.903,2.7103 -0.863,0.3388 -8.63,3.3879 c -3.193,1.2536 -6.958,-0.4245 -9.905,-3.9557 -0.019,2.3158 0.39,4.8359 1.276,7.3436 2.687,7.6099 8.73,12.2613 13.496,10.3904 z"
       fill="#0b57e0"
       id="path289" />
  </g>
  <g
     opacity="0.3"
     id="g297"
     transform="translate(-355.68579,-3.65341)">
    <path
       d="m 1362.9,163.544 0.86,-0.346 c 4.75,-1.914 6.47,-9.653 3.84,-17.286 l -18.06,7.278 c -4.75,1.914 -6.48,9.653 -3.85,17.286 2.63,7.632 8.61,12.268 13.36,10.354 4.75,-1.914 6.47,-9.653 3.85,-17.286 z"
       fill="url(#paint1_linear_168_3016)"
       id="path293"
       style="fill:url(#paint1_linear_168_3016)" />
    <path
       d="m 1384,170.78 c -2.63,-7.633 -8.61,-12.268 -13.36,-10.354 l -6.88,2.772 -0.86,0.347 -8.61,3.465 c -3.18,1.282 -6.91,-0.379 -9.82,-3.909 -0.03,2.328 0.36,4.859 1.22,7.375 2.63,7.633 8.61,12.268 13.36,10.354 z"
       fill="#0b57e0"
       id="path295" />
  </g>
  <g
     opacity="0.3"
     id="g303"
     transform="translate(-355.68579,-3.65341)">
    <path
       d="m 1038.45,33.9311 0.87,-0.3466 c 4.75,-1.9139 6.47,-9.6527 3.84,-17.2856 l -18.06,7.2777 c -4.75,1.9138 -6.48,9.6528 -3.85,17.2857 2.63,7.6329 8.61,12.2682 13.36,10.3544 4.75,-1.9139 6.47,-9.6527 3.84,-17.2856 z"
       fill="url(#paint2_linear_168_3016)"
       id="path299"
       style="fill:url(#paint2_linear_168_3016)" />
    <path
       d="m 1059.56,41.1669 c -2.63,-7.6329 -8.61,-12.2685 -13.36,-10.3546 l -6.88,2.7724 -0.86,0.3466 -8.61,3.4655 c -3.18,1.2824 -6.91,-0.379 -9.82,-3.9093 -0.04,2.3285 0.35,4.8596 1.22,7.375 2.63,7.6329 8.61,12.2682 13.36,10.3544 z"
       fill="#0b57e0"
       id="path301" />
  </g>
  <g
     opacity="0.3"
     id="g327"
     transform="translate(-355.68579,-3.65341)">
    <path
       d="m 1018.97,114.017 0.86,-0.347 c 4.75,-1.913 6.47,-9.652 3.84,-17.2852 l -18.06,7.2772 c -4.75,1.914 -6.473,9.653 -3.85,17.286 2.63,7.633 8.61,12.268 13.36,10.355 4.75,-1.914 6.48,-9.653 3.85,-17.286 z"
       fill="url(#paint6_linear_168_3016)"
       id="path323"
       style="fill:url(#paint6_linear_168_3016)" />
    <path
       d="m 1040.07,121.253 c -2.63,-7.633 -8.61,-12.269 -13.36,-10.355 l -6.88,2.773 -0.86,0.346 -8.6,3.466 c -3.19,1.282 -6.92,-0.379 -9.83,-3.91 -0.03,2.329 0.36,4.86 1.22,7.375 2.63,7.633 8.61,12.269 13.36,10.355 z"
       fill="#0b57e0"
       id="path325" />
  </g>
  <g
     opacity="0.3"
     id="g333"
     transform="translate(-355.68579,-3.65341)">
    <path
       d="m 1293.72,21.2856 0.86,-0.3466 c 4.76,-1.9139 6.48,-9.6528 3.85,-17.28559 l -18.06,7.27769 c -4.75,1.9137 -6.48,9.6528 -3.85,17.2857 2.63,7.6329 8.61,12.2682 13.36,10.3544 4.75,-1.9139 6.47,-9.6527 3.84,-17.2856 z"
       fill="url(#paint7_linear_168_3016)"
       id="path329"
       style="fill:url(#paint7_linear_168_3016)" />
    <path
       d="m 1314.83,28.5214 c -2.63,-7.6329 -8.61,-12.2685 -13.36,-10.3546 l -6.89,2.7724 -0.86,0.3466 -8.6,3.4655 c -3.18,1.2824 -6.92,-0.379 -9.82,-3.9093 -0.04,2.3285 0.35,4.8596 1.22,7.3749 2.63,7.6329 8.61,12.2682 13.36,10.3545 z"
       fill="#0b57e0"
       id="path331" />
  </g>
  <g
     opacity="0.3"
     id="g345"
     transform="translate(-355.68579,-3.65341)">
    <path
       d="m 1218.62,134.088 0.87,-0.343 c 4.75,-1.895 6.46,-9.611 3.81,-17.233 l -18.09,7.206 c -4.76,1.895 -6.47,9.611 -3.81,17.234 2.65,7.623 8.66,12.265 13.41,10.37 4.76,-1.895 6.47,-9.611 3.81,-17.234 z"
       fill="url(#paint9_linear_168_3016)"
       id="path341"
       style="fill:url(#paint9_linear_168_3016)" />
    <path
       d="m 1239.8,141.371 c -2.66,-7.623 -8.67,-12.266 -13.42,-10.371 l -6.89,2.745 -0.87,0.344 -8.61,3.431 c -3.19,1.27 -6.94,-0.399 -9.86,-3.93 -0.03,2.323 0.37,4.85 1.25,7.362 2.65,7.623 8.66,12.265 13.41,10.37 z"
       fill="#0b57e0"
       id="path343" />
  </g>
  <defs
     id="defs534">
    <linearGradient
       id="paint0_linear_168_3016"
       x1="889.677"
       y1="63.940899"
       x2="900.35101"
       y2="91.128197"
       gradientUnits="userSpaceOnUse">
      <stop
         stop-color="#0652DD"
         id="stop401" />
      <stop
         offset="0.473958"
         stop-color="#083587"
         id="stop403" />
      <stop
         offset="1"
         stop-color="#0176C3"
         id="stop405" />
    </linearGradient>
    <linearGradient
       id="paint1_linear_168_3016"
       x1="1354.27"
       y1="151.284"
       x2="1365.1801"
       y2="178.362"
       gradientUnits="userSpaceOnUse">
      <stop
         stop-color="#0652DD"
         id="stop408" />
      <stop
         offset="0.473958"
         stop-color="#083587"
         id="stop410" />
      <stop
         offset="1"
         stop-color="#0176C3"
         id="stop412" />
    </linearGradient>
    <linearGradient
       id="paint2_linear_168_3016"
       x1="1029.83"
       y1="21.670401"
       x2="1040.74"
       y2="48.748299"
       gradientUnits="userSpaceOnUse">
      <stop
         stop-color="#0652DD"
         id="stop415" />
      <stop
         offset="0.473958"
         stop-color="#083587"
         id="stop417" />
      <stop
         offset="1"
         stop-color="#0176C3"
         id="stop419" />
    </linearGradient>
    <linearGradient
       id="paint6_linear_168_3016"
       x1="1010.34"
       y1="101.756"
       x2="1021.25"
       y2="128.834"
       gradientUnits="userSpaceOnUse">
      <stop
         stop-color="#0652DD"
         id="stop443" />
      <stop
         offset="0.473958"
         stop-color="#083587"
         id="stop445" />
      <stop
         offset="1"
         stop-color="#0176C3"
         id="stop447" />
    </linearGradient>
    <linearGradient
       id="paint7_linear_168_3016"
       x1="1285.1"
       y1="9.0249395"
       x2="1296.01"
       y2="36.102798"
       gradientUnits="userSpaceOnUse">
      <stop
         stop-color="#0652DD"
         id="stop450" />
      <stop
         offset="0.473958"
         stop-color="#083587"
         id="stop452" />
      <stop
         offset="1"
         stop-color="#0176C3"
         id="stop454" />
    </linearGradient>
    <linearGradient
       id="paint9_linear_168_3016"
       x1="1209.9399"
       y1="121.83"
       x2="1220.75"
       y2="148.957"
       gradientUnits="userSpaceOnUse">
      <stop
         stop-color="#0652DD"
         id="stop464" />
      <stop
         offset="0.473958"
         stop-color="#083587"
         id="stop466" />
      <stop
         offset="1"
         stop-color="#0176C3"
         id="stop468" />
    </linearGradient>
  </defs>
  <rect
     style="fill:none"
     id="rect540"
     width="99.926979"
     height="145.34834"
     x="-3.7369732e-06"
     y="12.112363" />
</svg>
