<svg width="1385" height="349" viewBox="0 0 1385 349" fill="none" xmlns="http://www.w3.org/2000/svg">
<g opacity="0.3">
<path d="M898.427 76.1948L899.29 75.8559C904.056 73.9849 905.741 66.2995 903.053 58.6897L884.931 65.8043C880.165 67.6752 878.48 75.3608 881.167 82.9706C883.855 90.5805 889.898 95.2319 894.664 93.361C899.429 91.49 901.114 83.8047 898.427 76.1948Z" fill="url(#paint0_linear_168_3016)"/>
<path d="M919.689 83.5364C917.001 75.9266 910.959 71.2749 906.193 73.1459L899.29 75.8562L898.427 76.195L889.797 79.5829C886.604 80.8365 882.839 79.1584 879.892 75.6272C879.873 77.943 880.282 80.4631 881.168 82.9708C883.855 90.5807 889.898 95.2321 894.664 93.3612L919.689 83.5364Z" fill="#0B57E0"/>
</g>
<g opacity="0.3">
<path d="M1362.9 163.544L1363.76 163.198C1368.51 161.284 1370.23 153.545 1367.6 145.912L1349.54 153.19C1344.79 155.104 1343.06 162.843 1345.69 170.476C1348.32 178.108 1354.3 182.744 1359.05 180.83C1363.8 178.916 1365.52 171.177 1362.9 163.544Z" fill="url(#paint1_linear_168_3016)"/>
<path d="M1384 170.78C1381.37 163.147 1375.39 158.512 1370.64 160.426L1363.76 163.198L1362.9 163.545L1354.29 167.01C1351.11 168.292 1347.38 166.631 1344.47 163.101C1344.44 165.429 1344.83 167.96 1345.69 170.476C1348.32 178.109 1354.3 182.744 1359.05 180.83L1384 170.78Z" fill="#0B57E0"/>
</g>
<g opacity="0.3">
<path d="M1038.45 33.9311L1039.32 33.5845C1044.07 31.6706 1045.79 23.9318 1043.16 16.2989L1025.1 23.5766C1020.35 25.4904 1018.62 33.2294 1021.25 40.8623C1023.88 48.4952 1029.86 53.1305 1034.61 51.2167C1039.36 49.3028 1041.08 41.564 1038.45 33.9311Z" fill="url(#paint2_linear_168_3016)"/>
<path d="M1059.56 41.1669C1056.93 33.534 1050.95 28.8984 1046.2 30.8123L1039.32 33.5847L1038.46 33.9313L1029.85 37.3968C1026.67 38.6792 1022.94 37.0178 1020.03 33.4875C1019.99 35.816 1020.38 38.3471 1021.25 40.8625C1023.88 48.4954 1029.86 53.1307 1034.61 51.2169L1059.56 41.1669Z" fill="#0B57E0"/>
</g>
<g opacity="0.3">
<path d="M799.994 316.412L800.854 316.065C805.605 314.151 807.327 306.412 804.7 298.779L786.635 306.057C781.885 307.971 780.162 315.71 782.789 323.343C785.416 330.976 791.398 335.611 796.148 333.697C800.899 331.783 802.621 324.044 799.994 316.412Z" fill="url(#paint3_linear_168_3016)"/>
<path d="M821.095 323.647C818.468 316.014 812.487 311.379 807.736 313.293L800.854 316.065L799.994 316.412L791.392 319.877C788.209 321.16 784.474 319.498 781.565 315.968C781.533 318.296 781.924 320.828 782.789 323.343C785.416 330.976 791.398 335.611 796.148 333.697L821.095 323.647Z" fill="#0B57E0"/>
</g>
<g opacity="0.3">
<path d="M863.994 233.412L864.854 233.065C869.605 231.151 871.327 223.412 868.7 215.779L850.635 223.057C845.885 224.971 844.162 232.71 846.789 240.343C849.416 247.976 855.398 252.611 860.148 250.697C864.899 248.783 866.621 241.044 863.994 233.412Z" fill="url(#paint4_linear_168_3016)"/>
<path d="M885.095 240.647C882.468 233.014 876.487 228.379 871.736 230.293L864.854 233.065L863.994 233.412L855.392 236.877C852.209 238.16 848.474 236.498 845.565 232.968C845.533 235.296 845.924 237.828 846.789 240.343C849.416 247.976 855.398 252.611 860.148 250.697L885.095 240.647Z" fill="#0B57E0"/>
</g>
<g opacity="0.3">
<path d="M1021.63 313.56L1022.49 313.213C1027.24 311.3 1028.96 303.561 1026.34 295.928L1008.27 303.206C1003.52 305.119 1001.8 312.858 1004.43 320.491C1007.05 328.124 1013.03 332.759 1017.79 330.846C1022.54 328.932 1024.26 321.193 1021.63 313.56Z" fill="url(#paint5_linear_168_3016)"/>
<path d="M1042.73 320.796C1040.1 313.163 1034.12 308.527 1029.37 310.441L1022.49 313.214L1021.63 313.56L1013.03 317.026C1009.85 318.308 1006.11 316.647 1003.2 313.117C1003.17 315.445 1003.56 317.976 1004.43 320.491C1007.05 328.124 1013.03 332.76 1017.79 330.846L1042.73 320.796Z" fill="#0B57E0"/>
</g>
<g opacity="0.3">
<path d="M1018.97 114.017L1019.83 113.67C1024.58 111.757 1026.3 104.018 1023.67 96.3848L1005.61 103.662C1000.86 105.576 999.137 113.315 1001.76 120.948C1004.39 128.581 1010.37 133.216 1015.12 131.303C1019.87 129.389 1021.6 121.65 1018.97 114.017Z" fill="url(#paint6_linear_168_3016)"/>
<path d="M1040.07 121.253C1037.44 113.62 1031.46 108.984 1026.71 110.898L1019.83 113.671L1018.97 114.017L1010.37 117.483C1007.18 118.765 1003.45 117.104 1000.54 113.573C1000.51 115.902 1000.9 118.433 1001.76 120.948C1004.39 128.581 1010.37 133.217 1015.12 131.303L1040.07 121.253Z" fill="#0B57E0"/>
</g>
<g opacity="0.3">
<path d="M1293.72 21.2856L1294.58 20.939C1299.34 19.0251 1301.06 11.2862 1298.43 3.65341L1280.37 10.9311C1275.62 12.8448 1273.89 20.5839 1276.52 28.2168C1279.15 35.8497 1285.13 40.485 1289.88 38.5712C1294.63 36.6573 1296.35 28.9185 1293.72 21.2856Z" fill="url(#paint7_linear_168_3016)"/>
<path d="M1314.83 28.5214C1312.2 20.8885 1306.22 16.2529 1301.47 18.1668L1294.58 20.9392L1293.72 21.2858L1285.12 24.7513C1281.94 26.0337 1278.2 24.3723 1275.3 20.842C1275.26 23.1705 1275.65 25.7016 1276.52 28.2169C1279.15 35.8498 1285.13 40.4851 1289.88 38.5714L1314.83 28.5214Z" fill="#0B57E0"/>
</g>
<g opacity="0.3">
<path d="M1269.48 306.206L1270.35 305.861C1275.1 303.955 1276.81 296.227 1274.18 288.598L1256.1 295.844C1251.35 297.75 1249.63 305.479 1252.27 313.107C1254.91 320.736 1260.9 325.374 1265.65 323.469C1270.41 321.563 1272.12 313.835 1269.48 306.206Z" fill="url(#paint8_linear_168_3016)"/>
<path d="M1290.62 313.462C1287.98 305.834 1281.98 301.195 1277.23 303.101L1270.35 305.861L1269.48 306.206L1260.88 309.657C1257.69 310.934 1253.95 309.269 1251.04 305.738C1251.01 308.065 1251.4 310.594 1252.27 313.107C1254.91 320.736 1260.9 325.375 1265.65 323.469L1290.62 313.462Z" fill="#0B57E0"/>
</g>
<g opacity="0.3">
<path d="M1218.62 134.088L1219.49 133.745C1224.24 131.85 1225.95 124.134 1223.3 116.512L1205.21 123.718C1200.45 125.613 1198.74 133.329 1201.4 140.952C1204.05 148.575 1210.06 153.217 1214.81 151.322C1219.57 149.427 1221.28 141.711 1218.62 134.088Z" fill="url(#paint9_linear_168_3016)"/>
<path d="M1239.8 141.371C1237.14 133.748 1231.13 129.105 1226.38 131L1219.49 133.745L1218.62 134.089L1210.01 137.52C1206.82 138.79 1203.07 137.121 1200.15 133.59C1200.12 135.913 1200.52 138.44 1201.4 140.952C1204.05 148.575 1210.06 153.217 1214.81 151.322L1239.8 141.371Z" fill="#0B57E0"/>
</g>
<g opacity="0.3">
<path d="M514.539 81.6597L513.618 81.663C508.533 81.6811 504.429 88.2778 504.452 96.3975L523.791 96.3285C528.876 96.3103 532.981 89.7137 532.957 81.594C532.934 73.4742 528.791 66.9071 523.706 66.9252C518.62 66.9434 514.516 73.5399 514.539 81.6597Z" fill="url(#paint10_linear_168_3016)"/>
<path d="M497 67.0203C497.024 75.14 501.166 81.7072 506.251 81.689L513.618 81.6627L514.539 81.6594L523.748 81.6266C527.156 81.6144 530.138 84.5616 531.743 88.9489C532.521 86.7829 532.965 84.2695 532.957 81.5937C532.934 73.4739 528.791 66.9068 523.706 66.925L497 67.0203Z" fill="#0B57E0"/>
</g>
<g opacity="0.3">
<path d="M431.955 333.509L431.034 333.513C425.949 333.531 421.845 340.127 421.868 348.247L441.207 348.178C446.292 348.16 450.397 341.563 450.373 333.444C450.35 325.324 446.207 318.757 441.122 318.775C436.036 318.793 431.932 325.39 431.955 333.509Z" fill="url(#paint11_linear_168_3016)"/>
<path d="M414.416 318.87C414.44 326.99 418.582 333.557 423.667 333.539L431.034 333.512L431.955 333.509L441.164 333.476C444.572 333.464 447.554 336.411 449.159 340.799C449.937 338.633 450.381 336.119 450.373 333.443C450.35 325.324 446.207 318.756 441.122 318.775L414.416 318.87Z" fill="#0B57E0"/>
</g>
<g opacity="0.3">
<path d="M581.539 277.768L580.618 277.771C575.533 277.79 571.429 284.386 571.452 292.506L590.791 292.437C595.876 292.419 599.981 285.822 599.957 277.702C599.934 269.583 595.791 263.015 590.706 263.034C585.62 263.052 581.516 269.648 581.539 277.768Z" fill="url(#paint12_linear_168_3016)"/>
<path d="M564 263.129C564.024 271.248 568.166 277.816 573.251 277.797L580.618 277.771L581.539 277.768L590.748 277.735C594.156 277.723 597.138 280.67 598.743 285.057C599.521 282.891 599.965 280.378 599.957 277.702C599.934 269.582 595.791 263.015 590.706 263.033L564 263.129Z" fill="#0B57E0"/>
</g>
<g opacity="0.3">
<path d="M10.766 15.273L9.84492 15.2763C4.75917 15.2944 0.655143 21.891 0.678653 30.0108L20.0174 29.9417C25.1029 29.9236 29.2075 23.327 29.184 15.2073C29.1605 7.08747 25.0177 0.520356 19.9323 0.538504C14.8465 0.556654 10.7425 7.1532 10.766 15.273Z" fill="url(#paint13_linear_168_3016)"/>
<path d="M-6.77346 0.63354C-6.74995 8.75333 -2.60781 15.3204 2.47793 15.3023L9.84488 15.276L10.766 15.2727L19.9748 15.2399C23.3824 15.2277 26.3644 18.1748 27.9699 22.5622C28.7475 20.3962 29.1917 17.8828 29.184 15.207C29.1604 7.0872 25.0177 0.520085 19.9322 0.538234L-6.77346 0.63354Z" fill="#0B57E0"/>
</g>
<g opacity="0.3">
<path d="M348.539 130.133L347.618 130.137C342.533 130.155 338.429 136.751 338.452 144.871L357.791 144.802C362.876 144.784 366.981 138.187 366.957 130.067C366.934 121.948 362.791 115.381 357.706 115.399C352.62 115.417 348.516 122.013 348.539 130.133Z" fill="url(#paint14_linear_168_3016)"/>
<path d="M331 115.494C331.023 123.614 335.166 130.181 340.251 130.163L347.618 130.136L348.539 130.133L357.748 130.1C361.156 130.088 364.138 133.035 365.743 137.422C366.521 135.256 366.965 132.743 366.957 130.067C366.934 121.947 362.791 115.38 357.706 115.398L331 115.494Z" fill="#0B57E0"/>
</g>
<g opacity="0.3">
<path d="M355.672 50.0474L354.751 50.0507C349.665 50.0688 345.561 56.6654 345.585 64.7852L364.924 64.7162C370.009 64.698 374.114 58.1014 374.09 49.9817C374.067 41.8619 369.924 35.2948 364.839 35.3129C359.753 35.3311 355.649 41.9276 355.672 50.0474Z" fill="url(#paint15_linear_168_3016)"/>
<path d="M338.133 35.408C338.156 43.5277 342.298 50.0949 347.384 50.0767L354.751 50.0504L355.672 50.0471L364.881 50.0143C368.289 50.0021 371.271 52.9493 372.876 57.3366C373.654 55.1706 374.098 52.6572 374.09 49.9814C374.067 41.8616 369.924 35.2945 364.838 35.3126L338.133 35.408Z" fill="#0B57E0"/>
</g>
<g opacity="0.3">
<path d="M84.8168 154.37L83.8957 154.373C78.81 154.391 74.7059 160.988 74.7294 169.108L94.0682 169.039C99.1536 169.02 103.258 162.424 103.235 154.304C103.211 146.184 99.0685 139.617 93.9831 139.635C88.8973 139.653 84.7933 146.25 84.8168 154.37Z" fill="url(#paint16_linear_168_3016)"/>
<path d="M67.2773 139.73C67.3008 147.85 71.443 154.417 76.5287 154.399L83.8957 154.373L84.8168 154.37L94.0256 154.337C97.4332 154.324 100.415 157.272 102.021 161.659C102.798 159.493 103.242 156.98 103.235 154.304C103.211 146.184 99.0685 139.617 93.983 139.635L67.2773 139.73Z" fill="#0B57E0"/>
</g>
<g opacity="0.3">
<path d="M167.629 46.8863L166.708 46.8896C161.622 46.9077 157.518 53.5043 157.542 61.624L176.881 61.555C181.966 61.5369 186.071 54.9403 186.047 46.8205C186.024 38.7007 181.881 32.1336 176.796 32.1518C171.71 32.1699 167.606 38.7665 167.629 46.8863Z" fill="url(#paint17_linear_168_3016)"/>
<path d="M150.09 32.2468C150.113 40.3666 154.255 46.9337 159.341 46.9156L166.708 46.8893L167.629 46.886L176.838 46.8531C180.246 46.841 183.228 49.7881 184.833 54.1755C185.611 52.0095 186.055 49.4961 186.047 46.8203C186.024 38.7005 181.881 32.1334 176.796 32.1515L150.09 32.2468Z" fill="#0B57E0"/>
</g>
<g opacity="0.3">
<path d="M96.5082 298.735L95.5871 298.738C90.5014 298.756 86.3973 305.353 86.4208 313.473L105.76 313.404C110.845 313.386 114.95 306.789 114.926 298.669C114.903 290.549 110.76 283.982 105.674 284C100.589 284.019 96.4847 290.615 96.5082 298.735Z" fill="url(#paint18_linear_168_3016)"/>
<path d="M78.9687 284.095C78.9922 292.215 83.1344 298.782 88.2201 298.764L95.5871 298.738L96.5082 298.735L105.717 298.702C109.125 298.69 112.107 301.637 113.712 306.024C114.49 303.858 114.934 301.345 114.926 298.669C114.903 290.549 110.76 283.982 105.674 284L78.9687 284.095Z" fill="#0B57E0"/>
</g>
<defs>
<linearGradient id="paint0_linear_168_3016" x1="889.677" y1="63.9409" x2="900.351" y2="91.1282" gradientUnits="userSpaceOnUse">
<stop stop-color="#0652DD"/>
<stop offset="0.473958" stop-color="#083587"/>
<stop offset="1" stop-color="#0176C3"/>
</linearGradient>
<linearGradient id="paint1_linear_168_3016" x1="1354.27" y1="151.284" x2="1365.18" y2="178.362" gradientUnits="userSpaceOnUse">
<stop stop-color="#0652DD"/>
<stop offset="0.473958" stop-color="#083587"/>
<stop offset="1" stop-color="#0176C3"/>
</linearGradient>
<linearGradient id="paint2_linear_168_3016" x1="1029.83" y1="21.6704" x2="1040.74" y2="48.7483" gradientUnits="userSpaceOnUse">
<stop stop-color="#0652DD"/>
<stop offset="0.473958" stop-color="#083587"/>
<stop offset="1" stop-color="#0176C3"/>
</linearGradient>
<linearGradient id="paint3_linear_168_3016" x1="791.367" y1="304.151" x2="802.275" y2="331.229" gradientUnits="userSpaceOnUse">
<stop stop-color="#0652DD"/>
<stop offset="0.473958" stop-color="#083587"/>
<stop offset="1" stop-color="#0176C3"/>
</linearGradient>
<linearGradient id="paint4_linear_168_3016" x1="855.367" y1="221.151" x2="866.275" y2="248.229" gradientUnits="userSpaceOnUse">
<stop stop-color="#0652DD"/>
<stop offset="0.473958" stop-color="#083587"/>
<stop offset="1" stop-color="#0176C3"/>
</linearGradient>
<linearGradient id="paint5_linear_168_3016" x1="1013" y1="301.299" x2="1023.91" y2="328.377" gradientUnits="userSpaceOnUse">
<stop stop-color="#0652DD"/>
<stop offset="0.473958" stop-color="#083587"/>
<stop offset="1" stop-color="#0176C3"/>
</linearGradient>
<linearGradient id="paint6_linear_168_3016" x1="1010.34" y1="101.756" x2="1021.25" y2="128.834" gradientUnits="userSpaceOnUse">
<stop stop-color="#0652DD"/>
<stop offset="0.473958" stop-color="#083587"/>
<stop offset="1" stop-color="#0176C3"/>
</linearGradient>
<linearGradient id="paint7_linear_168_3016" x1="1285.1" y1="9.02494" x2="1296.01" y2="36.1028" gradientUnits="userSpaceOnUse">
<stop stop-color="#0652DD"/>
<stop offset="0.473958" stop-color="#083587"/>
<stop offset="1" stop-color="#0176C3"/>
</linearGradient>
<linearGradient id="paint8_linear_168_3016" x1="1260.83" y1="293.946" x2="1271.7" y2="321.046" gradientUnits="userSpaceOnUse">
<stop stop-color="#0652DD"/>
<stop offset="0.473958" stop-color="#083587"/>
<stop offset="1" stop-color="#0176C3"/>
</linearGradient>
<linearGradient id="paint9_linear_168_3016" x1="1209.94" y1="121.83" x2="1220.75" y2="148.957" gradientUnits="userSpaceOnUse">
<stop stop-color="#0652DD"/>
<stop offset="0.473958" stop-color="#083587"/>
<stop offset="1" stop-color="#0176C3"/>
</linearGradient>
<linearGradient id="paint10_linear_168_3016" x1="518.726" y1="96.3465" x2="518.621" y2="66.9434" gradientUnits="userSpaceOnUse">
<stop stop-color="#0652DD"/>
<stop offset="0.473958" stop-color="#083587"/>
<stop offset="1" stop-color="#0176C3"/>
</linearGradient>
<linearGradient id="paint11_linear_168_3016" x1="436.142" y1="348.196" x2="436.037" y2="318.793" gradientUnits="userSpaceOnUse">
<stop stop-color="#0652DD"/>
<stop offset="0.473958" stop-color="#083587"/>
<stop offset="1" stop-color="#0176C3"/>
</linearGradient>
<linearGradient id="paint12_linear_168_3016" x1="585.726" y1="292.455" x2="585.621" y2="263.052" gradientUnits="userSpaceOnUse">
<stop stop-color="#0652DD"/>
<stop offset="0.473958" stop-color="#083587"/>
<stop offset="1" stop-color="#0176C3"/>
</linearGradient>
<linearGradient id="paint13_linear_168_3016" x1="14.9523" y1="29.9598" x2="14.8474" y2="0.55665" gradientUnits="userSpaceOnUse">
<stop stop-color="#0652DD"/>
<stop offset="0.473958" stop-color="#083587"/>
<stop offset="1" stop-color="#0176C3"/>
</linearGradient>
<linearGradient id="paint14_linear_168_3016" x1="352.726" y1="144.82" x2="352.621" y2="115.417" gradientUnits="userSpaceOnUse">
<stop stop-color="#0652DD"/>
<stop offset="0.473958" stop-color="#083587"/>
<stop offset="1" stop-color="#0176C3"/>
</linearGradient>
<linearGradient id="paint15_linear_168_3016" x1="359.859" y1="64.7342" x2="359.754" y2="35.3311" gradientUnits="userSpaceOnUse">
<stop stop-color="#0652DD"/>
<stop offset="0.473958" stop-color="#083587"/>
<stop offset="1" stop-color="#0176C3"/>
</linearGradient>
<linearGradient id="paint16_linear_168_3016" x1="89.0031" y1="169.057" x2="88.8981" y2="139.653" gradientUnits="userSpaceOnUse">
<stop stop-color="#0652DD"/>
<stop offset="0.473958" stop-color="#083587"/>
<stop offset="1" stop-color="#0176C3"/>
</linearGradient>
<linearGradient id="paint17_linear_168_3016" x1="171.816" y1="61.5731" x2="171.711" y2="32.1699" gradientUnits="userSpaceOnUse">
<stop stop-color="#0652DD"/>
<stop offset="0.473958" stop-color="#083587"/>
<stop offset="1" stop-color="#0176C3"/>
</linearGradient>
<linearGradient id="paint18_linear_168_3016" x1="100.694" y1="313.422" x2="100.59" y2="284.019" gradientUnits="userSpaceOnUse">
<stop stop-color="#0652DD"/>
<stop offset="0.473958" stop-color="#083587"/>
<stop offset="1" stop-color="#0176C3"/>
</linearGradient>
</defs>
</svg>
