<svg width="289" height="280" viewBox="0 0 289 280" fill="none" xmlns="http://www.w3.org/2000/svg">
    <g opacity="0.3">
        <path
            d="M218.297 39.2735H69.3496C60.0655 39.2735 52.5393 46.9662 52.5393 56.4556H235.107C235.107 46.9662 227.581 39.2735 218.297 39.2735Z"
            fill="#0652DD" />
        <path
            d="M52.5393 55.986H235.107V198.108C235.107 204.427 232.651 210.487 228.28 214.955C223.909 219.423 217.98 221.933 211.798 221.933H75.849C69.6669 221.933 63.738 219.423 59.3665 214.955C54.9951 210.487 52.5393 204.427 52.5393 198.108V55.986Z"
            fill="#ACC5F4" />
        <path
            d="M203.724 73.9372H83.9801C81.4863 73.9372 79.4647 76.0012 79.4647 78.5474C79.4647 81.0935 81.4863 83.1576 83.9801 83.1576H203.724C206.218 83.1576 208.24 81.0935 208.24 78.5474C208.24 76.0012 206.218 73.9372 203.724 73.9372Z"
            fill="#CDDCF8" />
        <path
            d="M203.724 113.111H83.9801C81.4863 113.111 79.4647 115.175 79.4647 117.721C79.4647 120.268 81.4863 122.332 83.9801 122.332H203.724C206.218 122.332 208.24 120.268 208.24 117.721C208.24 115.175 206.218 113.111 203.724 113.111Z"
            fill="#CDDCF8" />
        <path
            d="M203.724 152.285H83.9801C81.4863 152.285 79.4647 154.349 79.4647 156.895C79.4647 159.442 81.4863 161.506 83.9801 161.506H203.724C206.218 161.506 208.24 159.442 208.24 156.895C208.24 154.349 206.218 152.285 203.724 152.285Z"
            fill="#CDDCF8" />
        <path
            d="M203.724 191.459H83.9801C81.4863 191.459 79.4647 193.523 79.4647 196.069C79.4647 198.615 81.4863 200.679 83.9801 200.679H203.724C206.218 200.679 208.24 198.615 208.24 196.069C208.24 193.523 206.218 191.459 203.724 191.459Z"
            fill="#CDDCF8" />
        <g filter="url(#filter0_d_10455_145540)">
            <path
                d="M83.1689 143.883H19.407C14.2845 143.883 10.132 148.127 10.132 153.363V246.516C10.132 251.752 14.2845 255.996 19.407 255.996H83.1689C88.2913 255.996 92.4439 251.752 92.4439 246.516V153.363C92.4439 148.127 88.2913 143.883 83.1689 143.883Z"
                fill="#F1F6FF" />
        </g>
        <path
            d="M76.0548 190.484H26.523C24.8551 190.484 23.5031 191.866 23.5031 193.571V193.581C23.5031 195.286 24.8551 196.668 26.523 196.668H76.0548C77.7227 196.668 79.0748 195.286 79.0748 193.581V193.571C79.0748 191.866 77.7227 190.484 76.0548 190.484Z"
            fill="#CDDCF8" />
        <path
            d="M76.0817 233.995H26.9756C25.322 233.995 23.9816 235.334 23.9816 236.985V236.995C23.9816 238.647 25.322 239.986 26.9756 239.986H76.0817C77.7353 239.986 79.0758 238.647 79.0758 236.995V236.985C79.0758 235.334 77.7353 233.995 76.0817 233.995Z"
            fill="#CDDCF8" />
        <path
            d="M76.0817 211.23H26.9756C25.322 211.23 23.9816 212.569 23.9816 214.221V214.23C23.9816 215.882 25.322 217.221 26.9756 217.221H76.0817C77.7353 217.221 79.0758 215.882 79.0758 214.23V214.221C79.0758 212.569 77.7353 211.23 76.0817 211.23Z"
            fill="#CDDCF8" />
        <path
            d="M44.6333 158.268H30.1588C26.9526 158.268 24.3534 160.925 24.3534 164.202V168.308C24.3534 171.585 26.9526 174.241 30.1588 174.241H44.6333C47.8395 174.241 50.4387 171.585 50.4387 168.308V164.202C50.4387 160.925 47.8395 158.268 44.6333 158.268Z"
            fill="#CDDCF8" />
        <path
            d="M196.727 162.621L214.221 144.7C215.86 142.927 216.758 140.571 216.724 138.132C216.69 135.693 215.727 133.364 214.04 131.639C212.353 129.914 210.074 128.93 207.688 128.895C205.301 128.861 202.996 129.779 201.262 131.454L183.728 149.375L166.233 131.454C165.392 130.543 164.38 129.814 163.257 129.31C162.135 128.807 160.926 128.538 159.7 128.52C158.474 128.502 157.258 128.736 156.122 129.207C154.986 129.678 153.954 130.378 153.088 131.264C152.221 132.149 151.537 133.204 151.076 134.365C150.615 135.526 150.386 136.769 150.404 138.022C150.421 139.275 150.684 140.511 151.177 141.658C151.67 142.805 152.383 143.84 153.274 144.7L170.798 162.621L153.274 180.543C152.383 181.403 151.67 182.438 151.177 183.585C150.684 184.732 150.421 185.968 150.404 187.221C150.386 188.474 150.615 189.717 151.076 190.878C151.537 192.039 152.221 193.093 153.088 193.979C153.954 194.865 154.986 195.565 156.122 196.036C157.258 196.507 158.474 196.741 159.7 196.723C160.926 196.705 162.135 196.436 163.257 195.932C164.38 195.429 165.392 194.7 166.233 193.789L183.767 175.868L201.301 193.789C203.052 195.365 205.325 196.2 207.657 196.123C209.989 196.046 212.205 195.062 213.852 193.373C215.5 191.684 216.455 189.417 216.524 187.033C216.592 184.649 215.769 182.328 214.221 180.543L196.727 162.621Z"
            fill="#FF2635" />
        <g filter="url(#filter1_f_10455_145540)">
            <ellipse cx="184.166" cy="196.775" rx="43.022" ry="6.4842" fill="#FFD8D6" />
        </g>
        <path
            d="M136.84 229.723L136.861 253.844C136.861 254.467 137.191 255.043 137.727 255.36L158.179 267.431L137.733 255.412C137.182 255.088 136.498 255.088 135.947 255.412L115.502 267.431L135.953 255.36C136.49 255.043 136.819 254.467 136.82 253.844L136.84 229.723Z"
            fill="#ACC5F4" />
        <path
            d="M39.5019 0L39.5224 24.1205C39.523 24.7436 39.8524 25.3201 40.389 25.6368L60.8404 37.7076L40.3951 25.6886C39.8438 25.3645 39.1601 25.3645 38.6088 25.6886L18.1635 37.7076L38.6149 25.6368C39.1514 25.3201 39.4809 24.7436 39.4815 24.1205L39.5019 0Z"
            fill="#ACC5F4" />
        <path fill-rule="evenodd" clip-rule="evenodd"
            d="M140.497 11.5218C142.765 11.5218 144.603 9.64595 144.603 7.33203C144.603 5.0181 142.765 3.1423 140.497 3.1423C138.229 3.1423 136.39 5.0181 136.39 7.33203C136.39 9.64595 138.229 11.5218 140.497 11.5218ZM140.497 14.6641C144.466 14.6641 147.683 11.3814 147.683 7.33203C147.683 3.28266 144.466 0 140.497 0C136.528 0 133.31 3.28266 133.31 7.33203C133.31 11.3814 136.528 14.6641 140.497 14.6641Z"
            fill="#ACC5F4" />
        <path
            d="M267.933 125.864C267.657 124.758 268.658 123.76 269.736 124.069L282.006 127.587C283.084 127.896 283.429 129.279 282.628 130.076L273.506 139.159C272.705 139.957 271.359 139.571 271.082 138.465L267.933 125.864Z"
            fill="#ACC5F4" />
        <path
            d="M28.4349 108.64C29.5196 108.36 30.4949 109.382 30.1907 110.481L26.7267 122.995C26.4225 124.094 25.0661 124.445 24.2855 123.627L15.3949 114.309C14.6144 113.491 14.9952 112.117 16.0803 111.837L28.4349 108.64Z"
            fill="#ACC5F4" />
        <path
            d="M224.279 253.414C225.364 253.134 226.339 254.156 226.035 255.254L222.571 267.769C222.267 268.868 220.91 269.219 220.13 268.401L211.239 259.083C210.458 258.265 210.839 256.891 211.924 256.611L224.279 253.414Z"
            fill="#ACC5F4" />
        <path fill-rule="evenodd" clip-rule="evenodd"
            d="M277.705 72.5421C279.973 72.5421 281.811 70.6663 281.811 68.3523C281.811 66.0384 279.973 64.1626 277.705 64.1626C275.437 64.1626 273.598 66.0384 273.598 68.3523C273.598 70.6663 275.437 72.5421 277.705 72.5421ZM277.705 75.6844C281.674 75.6844 284.891 72.4017 284.891 68.3523C284.891 64.303 281.674 61.0203 277.705 61.0203C273.736 61.0203 270.518 64.303 270.518 68.3523C270.518 72.4017 273.736 75.6844 277.705 75.6844Z"
            fill="#ACC5F4" />
    </g>
    <defs>
        <filter id="filter0_d_10455_145540" x="0.0660133" y="137.172" width="107.477" height="137.278"
            filterUnits="userSpaceOnUse" color-interpolation-filters="sRGB">
            <feFlood flood-opacity="0" result="BackgroundImageFix" />
            <feColorMatrix in="SourceAlpha" type="matrix" values="0 0 0 0 0 0 0 0 0 0 0 0 0 0 0 0 0 0 127 0"
                result="hardAlpha" />
            <feOffset dx="2.51649" dy="5.8718" />
            <feGaussianBlur stdDeviation="6.29122" />
            <feComposite in2="hardAlpha" operator="out" />
            <feColorMatrix type="matrix" values="0 0 0 0 0.104618 0 0 0 0 0.465612 0 0 0 0 0.545833 0 0 0 0.15 0" />
            <feBlend mode="normal" in2="BackgroundImageFix" result="effect1_dropShadow_10455_145540" />
            <feBlend mode="normal" in="SourceGraphic" in2="effect1_dropShadow_10455_145540" result="shape" />
        </filter>
        <filter id="filter1_f_10455_145540" x="123.66" y="172.806" width="121.013" height="47.9374"
            filterUnits="userSpaceOnUse" color-interpolation-filters="sRGB">
            <feFlood flood-opacity="0" result="BackgroundImageFix" />
            <feBlend mode="normal" in="SourceGraphic" in2="BackgroundImageFix" result="shape" />
            <feGaussianBlur stdDeviation="8.74224" result="effect1_foregroundBlur_10455_145540" />
        </filter>
    </defs>
</svg>