<svg width="558" height="400" viewBox="0 0 558 400" fill="none" xmlns="http://www.w3.org/2000/svg">
    <rect x="1" y="1" width="556" height="398" rx="23" fill="white" />
    <path d="M269.003 158.667V138.667L262.336 145.333" stroke="#434343" stroke-width="1.5" stroke-linecap="round"
        stroke-linejoin="round" />
    <path d="M269 138.667L275.667 145.333" stroke="#434343" stroke-width="1.5" stroke-linecap="round"
        stroke-linejoin="round" />
    <path
        d="M312.331 135.333V152C312.331 168.667 305.664 175.333 288.997 175.333H268.997C252.331 175.333 245.664 168.667 245.664 152V132C245.664 115.333 252.331 108.667 268.997 108.667H285.664"
        stroke="#434343" stroke-width="1.5" stroke-linecap="round" stroke-linejoin="round" />
    <path d="M312.331 135.333H298.997C288.997 135.333 285.664 132 285.664 122V108.667L312.331 135.333Z" stroke="#434343"
        stroke-width="1.5" stroke-linecap="round" stroke-linejoin="round" />
    <path opacity="0.8"
        d="M156.25 225V207.72H161.662C161.822 207.72 162.118 207.724 162.55 207.732C162.99 207.74 163.41 207.772 163.81 207.828C165.162 207.996 166.298 208.48 167.218 209.28C168.146 210.08 168.846 211.096 169.318 212.328C169.79 213.552 170.026 214.896 170.026 216.36C170.026 217.832 169.79 219.184 169.318 220.416C168.846 221.64 168.146 222.652 167.218 223.452C166.298 224.244 165.162 224.724 163.81 224.892C163.41 224.948 162.99 224.98 162.55 224.988C162.118 224.996 161.822 225 161.662 225H156.25ZM158.818 222.612H161.662C161.934 222.612 162.258 222.604 162.634 222.588C163.01 222.572 163.342 222.54 163.63 222.492C164.51 222.324 165.222 221.944 165.766 221.352C166.318 220.752 166.722 220.016 166.978 219.144C167.234 218.272 167.362 217.344 167.362 216.36C167.362 215.344 167.23 214.404 166.966 213.54C166.702 212.668 166.294 211.94 165.742 211.356C165.198 210.764 164.494 210.388 163.63 210.228C163.342 210.172 163.006 210.14 162.622 210.132C162.246 210.116 161.926 210.108 161.662 210.108H158.818V222.612ZM172.821 225V212.04H175.053V215.184L174.741 214.776C174.901 214.36 175.109 213.98 175.365 213.636C175.621 213.284 175.917 212.996 176.253 212.772C176.581 212.532 176.945 212.348 177.345 212.22C177.753 212.084 178.169 212.004 178.593 211.98C179.017 211.948 179.425 211.968 179.817 212.04V214.392C179.393 214.28 178.921 214.248 178.401 214.296C177.889 214.344 177.417 214.508 176.985 214.788C176.577 215.052 176.253 215.372 176.013 215.748C175.781 216.124 175.613 216.544 175.509 217.008C175.405 217.464 175.353 217.948 175.353 218.46V225H172.821ZM185.387 225.36C184.427 225.36 183.623 225.184 182.975 224.832C182.327 224.472 181.835 224 181.499 223.416C181.171 222.824 181.007 222.176 181.007 221.472C181.007 220.816 181.123 220.24 181.355 219.744C181.587 219.248 181.931 218.828 182.387 218.484C182.843 218.132 183.403 217.848 184.067 217.632C184.643 217.464 185.295 217.316 186.023 217.188C186.751 217.06 187.515 216.94 188.315 216.828C189.123 216.716 189.923 216.604 190.715 216.492L189.803 216.996C189.819 215.98 189.603 215.228 189.155 214.74C188.715 214.244 187.955 213.996 186.875 213.996C186.195 213.996 185.571 214.156 185.003 214.476C184.435 214.788 184.039 215.308 183.815 216.036L181.475 215.316C181.795 214.204 182.403 213.32 183.299 212.664C184.203 212.008 185.403 211.68 186.899 211.68C188.059 211.68 189.067 211.88 189.923 212.28C190.787 212.672 191.419 213.296 191.819 214.152C192.027 214.576 192.155 215.024 192.203 215.496C192.251 215.968 192.275 216.476 192.275 217.02V225H190.055V222.036L190.487 222.42C189.951 223.412 189.267 224.152 188.435 224.64C187.611 225.12 186.595 225.36 185.387 225.36ZM185.831 223.308C186.543 223.308 187.155 223.184 187.667 222.936C188.179 222.68 188.591 222.356 188.903 221.964C189.215 221.572 189.419 221.164 189.515 220.74C189.651 220.356 189.727 219.924 189.743 219.444C189.767 218.964 189.779 218.58 189.779 218.292L190.595 218.592C189.803 218.712 189.083 218.82 188.435 218.916C187.787 219.012 187.199 219.108 186.671 219.204C186.151 219.292 185.687 219.4 185.279 219.528C184.935 219.648 184.627 219.792 184.355 219.96C184.091 220.128 183.879 220.332 183.719 220.572C183.567 220.812 183.491 221.104 183.491 221.448C183.491 221.784 183.575 222.096 183.743 222.384C183.911 222.664 184.167 222.888 184.511 223.056C184.855 223.224 185.295 223.308 185.831 223.308ZM200.731 231.12C200.035 231.12 199.359 231.012 198.703 230.796C198.055 230.58 197.463 230.26 196.927 229.836C196.391 229.42 195.947 228.904 195.595 228.288L197.911 227.112C198.191 227.664 198.591 228.068 199.111 228.324C199.631 228.58 200.179 228.708 200.755 228.708C201.467 228.708 202.075 228.58 202.579 228.324C203.083 228.076 203.463 227.7 203.719 227.196C203.983 226.692 204.111 226.068 204.103 225.324V221.7H204.403V212.04H206.623V225.348C206.623 225.692 206.611 226.02 206.587 226.332C206.563 226.644 206.519 226.956 206.455 227.268C206.271 228.14 205.919 228.86 205.399 229.428C204.887 229.996 204.231 230.42 203.431 230.7C202.639 230.98 201.739 231.12 200.731 231.12ZM200.539 225.36C199.331 225.36 198.287 225.06 197.407 224.46C196.535 223.86 195.859 223.044 195.379 222.012C194.907 220.972 194.671 219.804 194.671 218.508C194.671 217.204 194.911 216.04 195.391 215.016C195.871 213.984 196.551 213.172 197.431 212.58C198.319 211.98 199.371 211.68 200.587 211.68C201.811 211.68 202.839 211.98 203.671 212.58C204.511 213.172 205.143 213.984 205.567 215.016C205.999 216.048 206.215 217.212 206.215 218.508C206.215 219.804 205.999 220.968 205.567 222C205.135 223.032 204.499 223.852 203.659 224.46C202.819 225.06 201.779 225.36 200.539 225.36ZM200.887 223.092C201.711 223.092 202.383 222.896 202.903 222.504C203.423 222.112 203.803 221.572 204.043 220.884C204.283 220.196 204.403 219.404 204.403 218.508C204.403 217.612 204.279 216.82 204.031 216.132C203.791 215.444 203.415 214.908 202.903 214.524C202.399 214.14 201.755 213.948 200.971 213.948C200.139 213.948 199.455 214.152 198.919 214.56C198.383 214.968 197.983 215.516 197.719 216.204C197.463 216.892 197.335 217.66 197.335 218.508C197.335 219.364 197.463 220.14 197.719 220.836C197.983 221.524 198.375 222.072 198.895 222.48C199.423 222.888 200.087 223.092 200.887 223.092ZM220.473 225.36C219.505 225.36 218.601 225.22 217.761 224.94C216.921 224.652 216.217 224.204 215.649 223.596C215.209 223.108 214.881 222.572 214.665 221.988C214.457 221.396 214.341 220.768 214.317 220.104C214.317 219.456 214.409 218.828 214.593 218.22C214.785 217.604 215.085 217.056 215.493 216.576C215.677 216.352 215.881 216.16 216.105 216C216.329 215.832 216.553 215.684 216.777 215.556C216.265 214.996 215.877 214.464 215.613 213.96C215.349 213.448 215.217 212.844 215.217 212.148C215.217 211.172 215.473 210.296 215.985 209.52C216.497 208.736 217.197 208.172 218.085 207.828C218.493 207.66 218.909 207.548 219.333 207.492C219.757 207.428 220.169 207.396 220.569 207.396C221.289 207.396 221.985 207.5 222.657 207.708C223.329 207.916 223.905 208.256 224.385 208.728C224.689 209.008 224.945 209.324 225.153 209.676C225.369 210.028 225.533 210.388 225.645 210.756L223.173 211.332C223.037 210.948 222.813 210.624 222.501 210.36C222.237 210.128 221.929 209.972 221.577 209.892C221.233 209.804 220.889 209.76 220.545 209.76C219.977 209.76 219.465 209.868 219.009 210.084C218.593 210.284 218.281 210.56 218.073 210.912C217.865 211.256 217.761 211.672 217.761 212.16C217.761 212.592 217.837 212.94 217.989 213.204C218.141 213.468 218.345 213.744 218.601 214.032C218.753 214.2 218.933 214.38 219.141 214.572C219.357 214.764 219.577 214.964 219.801 215.172L224.505 219.552C224.521 219.376 224.533 219.188 224.541 218.988C224.549 218.788 224.553 218.596 224.553 218.412L224.541 216.168H226.785V219.132C226.785 219.636 226.769 220.092 226.737 220.5C226.713 220.9 226.665 221.228 226.593 221.484L228.753 223.488L227.133 225.228L225.393 223.572C225.025 223.94 224.613 224.252 224.157 224.508C223.701 224.756 223.241 224.94 222.777 225.06C222.385 225.18 221.997 225.26 221.613 225.3C221.237 225.34 220.857 225.36 220.473 225.36ZM220.545 222.96C220.865 222.96 221.161 222.944 221.433 222.912C221.705 222.872 221.965 222.8 222.213 222.696C222.549 222.56 222.821 222.42 223.029 222.276C223.245 222.132 223.425 221.992 223.569 221.856L218.649 217.344C218.401 217.432 218.169 217.548 217.953 217.692C217.745 217.828 217.565 217.988 217.413 218.172C217.229 218.404 217.089 218.676 216.993 218.988C216.905 219.292 216.865 219.62 216.873 219.972C216.873 220.356 216.933 220.708 217.053 221.028C217.181 221.34 217.345 221.62 217.545 221.868C217.865 222.252 218.309 222.532 218.877 222.708C219.453 222.876 220.009 222.96 220.545 222.96ZM235.493 225V207.72H240.905C241.065 207.72 241.361 207.724 241.793 207.732C242.233 207.74 242.653 207.772 243.053 207.828C244.405 207.996 245.541 208.48 246.461 209.28C247.389 210.08 248.089 211.096 248.561 212.328C249.033 213.552 249.269 214.896 249.269 216.36C249.269 217.832 249.033 219.184 248.561 220.416C248.089 221.64 247.389 222.652 246.461 223.452C245.541 224.244 244.405 224.724 243.053 224.892C242.653 224.948 242.233 224.98 241.793 224.988C241.361 224.996 241.065 225 240.905 225H235.493ZM238.061 222.612H240.905C241.177 222.612 241.501 222.604 241.877 222.588C242.253 222.572 242.585 222.54 242.873 222.492C243.753 222.324 244.465 221.944 245.009 221.352C245.561 220.752 245.965 220.016 246.221 219.144C246.477 218.272 246.605 217.344 246.605 216.36C246.605 215.344 246.473 214.404 246.208 213.54C245.944 212.668 245.537 211.94 244.985 211.356C244.441 210.764 243.737 210.388 242.873 210.228C242.585 210.172 242.249 210.14 241.865 210.132C241.489 210.116 241.169 210.108 240.905 210.108H238.061V222.612ZM252.063 225V212.04H254.295V215.184L253.983 214.776C254.143 214.36 254.351 213.98 254.607 213.636C254.863 213.284 255.159 212.996 255.495 212.772C255.823 212.532 256.187 212.348 256.587 212.22C256.995 212.084 257.411 212.004 257.835 211.98C258.259 211.948 258.667 211.968 259.059 212.04V214.392C258.635 214.28 258.163 214.248 257.643 214.296C257.131 214.344 256.659 214.508 256.227 214.788C255.819 215.052 255.495 215.372 255.255 215.748C255.023 216.124 254.855 216.544 254.751 217.008C254.647 217.464 254.595 217.948 254.595 218.46V225H252.063ZM266.738 225.36C265.442 225.36 264.318 225.068 263.366 224.484C262.414 223.9 261.678 223.096 261.158 222.072C260.646 221.04 260.39 219.852 260.39 218.508C260.39 217.156 260.654 215.968 261.182 214.944C261.71 213.912 262.45 213.112 263.402 212.544C264.354 211.968 265.466 211.68 266.738 211.68C268.034 211.68 269.158 211.972 270.11 212.556C271.062 213.14 271.798 213.944 272.318 214.968C272.838 215.992 273.098 217.172 273.098 218.508C273.098 219.86 272.834 221.052 272.306 222.084C271.786 223.108 271.05 223.912 270.098 224.496C269.146 225.072 268.026 225.36 266.738 225.36ZM266.738 222.996C267.978 222.996 268.902 222.58 269.51 221.748C270.126 220.908 270.434 219.828 270.434 218.508C270.434 217.156 270.122 216.076 269.498 215.268C268.882 214.452 267.962 214.044 266.738 214.044C265.898 214.044 265.206 214.236 264.662 214.62C264.118 214.996 263.714 215.52 263.45 216.192C263.186 216.856 263.054 217.628 263.054 218.508C263.054 219.868 263.366 220.956 263.99 221.772C264.614 222.588 265.53 222.996 266.738 222.996ZM281.819 225.36C280.579 225.36 279.539 225.06 278.699 224.46C277.859 223.852 277.223 223.032 276.791 222C276.359 220.968 276.143 219.804 276.143 218.508C276.143 217.212 276.355 216.048 276.779 215.016C277.211 213.984 277.843 213.172 278.675 212.58C279.515 211.98 280.547 211.68 281.771 211.68C282.987 211.68 284.035 211.98 284.915 212.58C285.803 213.172 286.487 213.984 286.967 215.016C287.447 216.04 287.687 217.204 287.687 218.508C287.687 219.804 287.447 220.972 286.967 222.012C286.495 223.044 285.819 223.86 284.939 224.46C284.067 225.06 283.027 225.36 281.819 225.36ZM275.723 230.76V212.04H277.955V221.364H278.243V230.76H275.723ZM281.471 223.092C282.271 223.092 282.931 222.888 283.451 222.48C283.979 222.072 284.371 221.524 284.627 220.836C284.891 220.14 285.023 219.364 285.023 218.508C285.023 217.66 284.891 216.892 284.627 216.204C284.371 215.516 283.975 214.968 283.439 214.56C282.903 214.152 282.219 213.948 281.387 213.948C280.603 213.948 279.955 214.14 279.443 214.524C278.939 214.908 278.563 215.444 278.315 216.132C278.075 216.82 277.955 217.612 277.955 218.508C277.955 219.404 278.075 220.196 278.315 220.884C278.555 221.572 278.935 222.112 279.455 222.504C279.975 222.896 280.647 223.092 281.471 223.092ZM302.557 225C301.741 225.16 300.941 225.228 300.157 225.204C299.373 225.18 298.673 225.028 298.057 224.748C297.441 224.468 296.977 224.028 296.665 223.428C296.385 222.892 296.233 222.348 296.209 221.796C296.193 221.236 296.185 220.604 296.185 219.9V208.44H298.705V219.78C298.705 220.3 298.709 220.752 298.717 221.136C298.733 221.52 298.817 221.844 298.969 222.108C299.257 222.604 299.713 222.888 300.337 222.96C300.969 223.024 301.709 222.996 302.557 222.876V225ZM293.701 214.056V212.04H302.557V214.056H293.701ZM310.331 225.36C309.035 225.36 307.911 225.068 306.959 224.484C306.007 223.9 305.271 223.096 304.751 222.072C304.239 221.04 303.983 219.852 303.983 218.508C303.983 217.156 304.247 215.968 304.775 214.944C305.303 213.912 306.043 213.112 306.995 212.544C307.947 211.968 309.059 211.68 310.331 211.68C311.627 211.68 312.751 211.972 313.703 212.556C314.655 213.14 315.391 213.944 315.911 214.968C316.431 215.992 316.691 217.172 316.691 218.508C316.691 219.86 316.427 221.052 315.899 222.084C315.379 223.108 314.643 223.912 313.691 224.496C312.739 225.072 311.619 225.36 310.331 225.36ZM310.331 222.996C311.571 222.996 312.495 222.58 313.103 221.748C313.719 220.908 314.027 219.828 314.027 218.508C314.027 217.156 313.715 216.076 313.091 215.268C312.475 214.452 311.555 214.044 310.331 214.044C309.491 214.044 308.799 214.236 308.255 214.62C307.711 214.996 307.307 215.52 307.043 216.192C306.779 216.856 306.647 217.628 306.647 218.508C306.647 219.868 306.959 220.956 307.583 221.772C308.207 222.588 309.123 222.996 310.331 222.996ZM331.021 225.36C329.669 225.36 328.473 225.084 327.433 224.532C326.401 223.972 325.593 223.192 325.009 222.192C324.425 221.184 324.133 220 324.133 218.64V207.732L326.677 207.72V218.508C326.677 219.244 326.801 219.892 327.049 220.452C327.297 221.012 327.629 221.48 328.045 221.856C328.461 222.232 328.925 222.516 329.437 222.708C329.957 222.9 330.485 222.996 331.021 222.996C331.565 222.996 332.093 222.9 332.605 222.708C333.125 222.508 333.593 222.22 334.009 221.844C334.425 221.468 334.753 221 334.993 220.44C335.241 219.88 335.365 219.236 335.365 218.508V207.72H337.909V218.64C337.909 219.992 337.617 221.172 337.033 222.18C336.449 223.188 335.637 223.972 334.597 224.532C333.565 225.084 332.373 225.36 331.021 225.36ZM347.35 225.36C346.11 225.36 345.07 225.06 344.23 224.46C343.39 223.852 342.754 223.032 342.322 222C341.89 220.968 341.674 219.804 341.674 218.508C341.674 217.212 341.886 216.048 342.31 215.016C342.742 213.984 343.374 213.172 344.206 212.58C345.046 211.98 346.078 211.68 347.302 211.68C348.518 211.68 349.566 211.98 350.446 212.58C351.334 213.172 352.018 213.984 352.498 215.016C352.978 216.04 353.218 217.204 353.218 218.508C353.218 219.804 352.978 220.972 352.498 222.012C352.026 223.044 351.35 223.86 350.47 224.46C349.598 225.06 348.558 225.36 347.35 225.36ZM341.254 230.76V212.04H343.486V221.364H343.774V230.76H341.254ZM347.002 223.092C347.802 223.092 348.462 222.888 348.982 222.48C349.51 222.072 349.902 221.524 350.158 220.836C350.422 220.14 350.554 219.364 350.554 218.508C350.554 217.66 350.422 216.892 350.158 216.204C349.902 215.516 349.506 214.968 348.97 214.56C348.434 214.152 347.75 213.948 346.918 213.948C346.134 213.948 345.486 214.14 344.974 214.524C344.47 214.908 344.094 215.444 343.846 216.132C343.606 216.82 343.486 217.612 343.486 218.508C343.486 219.404 343.606 220.196 343.846 220.884C344.086 221.572 344.466 222.112 344.986 222.504C345.506 222.896 346.178 223.092 347.002 223.092ZM356.108 225V207.36H358.616V225H356.108ZM367.847 225.36C366.551 225.36 365.427 225.068 364.475 224.484C363.523 223.9 362.787 223.096 362.267 222.072C361.755 221.04 361.499 219.852 361.499 218.508C361.499 217.156 361.763 215.968 362.291 214.944C362.819 213.912 363.559 213.112 364.511 212.544C365.463 211.968 366.575 211.68 367.847 211.68C369.143 211.68 370.267 211.972 371.219 212.556C372.171 213.14 372.907 213.944 373.427 214.968C373.947 215.992 374.207 217.172 374.207 218.508C374.207 219.86 373.943 221.052 373.415 222.084C372.895 223.108 372.159 223.912 371.207 224.496C370.255 225.072 369.135 225.36 367.847 225.36ZM367.847 222.996C369.087 222.996 370.011 222.58 370.619 221.748C371.235 220.908 371.543 219.828 371.543 218.508C371.543 217.156 371.231 216.076 370.607 215.268C369.991 214.452 369.071 214.044 367.847 214.044C367.007 214.044 366.315 214.236 365.771 214.62C365.227 214.996 364.823 215.52 364.559 216.192C364.295 216.856 364.163 217.628 364.163 218.508C364.163 219.868 364.475 220.956 365.099 221.772C365.723 222.588 366.639 222.996 367.847 222.996ZM380.504 225.36C379.544 225.36 378.74 225.184 378.092 224.832C377.444 224.472 376.952 224 376.616 223.416C376.288 222.824 376.124 222.176 376.124 221.472C376.124 220.816 376.24 220.24 376.472 219.744C376.704 219.248 377.048 218.828 377.504 218.484C377.96 218.132 378.52 217.848 379.184 217.632C379.76 217.464 380.412 217.316 381.14 217.188C381.868 217.06 382.632 216.94 383.432 216.828C384.24 216.716 385.04 216.604 385.832 216.492L384.92 216.996C384.936 215.98 384.72 215.228 384.272 214.74C383.832 214.244 383.072 213.996 381.992 213.996C381.312 213.996 380.688 214.156 380.12 214.476C379.552 214.788 379.156 215.308 378.932 216.036L376.592 215.316C376.912 214.204 377.52 213.32 378.416 212.664C379.32 212.008 380.52 211.68 382.016 211.68C383.176 211.68 384.184 211.88 385.04 212.28C385.904 212.672 386.536 213.296 386.936 214.152C387.144 214.576 387.272 215.024 387.32 215.496C387.368 215.968 387.392 216.476 387.392 217.02V225H385.172V222.036L385.604 222.42C385.068 223.412 384.384 224.152 383.552 224.64C382.728 225.12 381.712 225.36 380.504 225.36ZM380.948 223.308C381.66 223.308 382.272 223.184 382.784 222.936C383.296 222.68 383.708 222.356 384.02 221.964C384.332 221.572 384.536 221.164 384.632 220.74C384.768 220.356 384.844 219.924 384.86 219.444C384.884 218.964 384.896 218.58 384.896 218.292L385.712 218.592C384.92 218.712 384.2 218.82 383.552 218.916C382.904 219.012 382.316 219.108 381.788 219.204C381.268 219.292 380.804 219.4 380.396 219.528C380.052 219.648 379.744 219.792 379.472 219.96C379.208 220.128 378.996 220.332 378.836 220.572C378.684 220.812 378.608 221.104 378.608 221.448C378.608 221.784 378.692 222.096 378.86 222.384C379.028 222.664 379.284 222.888 379.628 223.056C379.972 223.224 380.412 223.308 380.948 223.308ZM395.656 225.36C394.448 225.36 393.404 225.06 392.524 224.46C391.652 223.86 390.976 223.044 390.496 222.012C390.024 220.972 389.788 219.804 389.788 218.508C389.788 217.204 390.028 216.04 390.508 215.016C390.988 213.984 391.668 213.172 392.548 212.58C393.436 211.98 394.488 211.68 395.704 211.68C396.928 211.68 397.956 211.98 398.788 212.58C399.628 213.172 400.26 213.984 400.684 215.016C401.116 216.048 401.332 217.212 401.332 218.508C401.332 219.804 401.116 220.968 400.684 222C400.252 223.032 399.616 223.852 398.776 224.46C397.936 225.06 396.896 225.36 395.656 225.36ZM396.004 223.092C396.828 223.092 397.5 222.896 398.02 222.504C398.54 222.112 398.92 221.572 399.16 220.884C399.4 220.196 399.52 219.404 399.52 218.508C399.52 217.612 399.396 216.82 399.148 216.132C398.908 215.444 398.532 214.908 398.02 214.524C397.516 214.14 396.872 213.948 396.088 213.948C395.256 213.948 394.572 214.152 394.036 214.56C393.5 214.968 393.1 215.516 392.836 216.204C392.58 216.892 392.452 217.66 392.452 218.508C392.452 219.364 392.58 220.14 392.836 220.836C393.1 221.524 393.492 222.072 394.012 222.48C394.54 222.888 395.204 223.092 396.004 223.092ZM399.52 225V215.676H399.232V207.72H401.752V225H399.52Z"
        fill="#0652DD" />
    <path opacity="0.55"
        d="M208.612 256V244.48H215.228V245.656H209.788V249.656H214.268V250.824H209.788V256H208.612ZM216.835 245.72V244.4H218.011V245.72H216.835ZM216.835 256V247.36H218.011V256H216.835ZM220.569 256V244.24H221.745V256H220.569ZM227.799 256.24C226.957 256.24 226.226 256.053 225.607 255.68C224.994 255.307 224.517 254.781 224.175 254.104C223.834 253.427 223.663 252.632 223.663 251.72C223.663 250.776 223.831 249.96 224.167 249.272C224.503 248.584 224.975 248.053 225.583 247.68C226.197 247.307 226.919 247.12 227.751 247.12C228.605 247.12 229.333 247.317 229.935 247.712C230.538 248.101 230.994 248.661 231.303 249.392C231.613 250.123 231.754 250.995 231.727 252.008H230.527V251.592C230.506 250.472 230.263 249.627 229.799 249.056C229.341 248.485 228.669 248.2 227.783 248.2C226.855 248.2 226.143 248.501 225.647 249.104C225.157 249.707 224.911 250.565 224.911 251.68C224.911 252.768 225.157 253.613 225.647 254.216C226.143 254.813 226.845 255.112 227.751 255.112C228.37 255.112 228.909 254.971 229.367 254.688C229.831 254.4 230.197 253.987 230.463 253.448L231.559 253.872C231.218 254.624 230.714 255.208 230.047 255.624C229.386 256.035 228.637 256.24 227.799 256.24ZM224.495 252.008V251.024H231.095V252.008H224.495ZM240.706 256.24C239.901 256.24 239.175 256.107 238.53 255.84C237.89 255.568 237.359 255.184 236.938 254.688C236.522 254.192 236.25 253.603 236.122 252.92L237.322 252.72C237.514 253.467 237.919 254.053 238.538 254.48C239.157 254.901 239.895 255.112 240.754 255.112C241.319 255.112 241.826 255.024 242.274 254.848C242.722 254.667 243.074 254.411 243.33 254.08C243.586 253.749 243.714 253.357 243.714 252.904C243.714 252.605 243.661 252.352 243.554 252.144C243.447 251.931 243.306 251.755 243.13 251.616C242.954 251.477 242.762 251.363 242.554 251.272C242.346 251.176 242.143 251.099 241.946 251.04L239.026 250.168C238.674 250.067 238.349 249.939 238.05 249.784C237.751 249.624 237.49 249.435 237.266 249.216C237.047 248.992 236.877 248.731 236.754 248.432C236.631 248.133 236.57 247.792 236.57 247.408C236.57 246.757 236.741 246.195 237.082 245.72C237.423 245.245 237.89 244.88 238.482 244.624C239.074 244.368 239.749 244.243 240.506 244.248C241.274 244.248 241.959 244.384 242.562 244.656C243.17 244.928 243.671 245.317 244.066 245.824C244.461 246.325 244.722 246.92 244.85 247.608L243.618 247.832C243.538 247.331 243.354 246.896 243.066 246.528C242.778 246.16 242.41 245.877 241.962 245.68C241.519 245.477 241.031 245.373 240.498 245.368C239.981 245.368 239.519 245.456 239.114 245.632C238.714 245.803 238.397 246.037 238.162 246.336C237.927 246.635 237.81 246.976 237.81 247.36C237.81 247.749 237.917 248.061 238.13 248.296C238.349 248.531 238.615 248.715 238.93 248.848C239.25 248.981 239.559 249.091 239.858 249.176L242.114 249.84C242.349 249.904 242.623 249.997 242.938 250.12C243.258 250.237 243.567 250.408 243.866 250.632C244.17 250.851 244.421 251.139 244.618 251.496C244.815 251.853 244.914 252.307 244.914 252.856C244.914 253.389 244.807 253.867 244.594 254.288C244.386 254.709 244.09 255.064 243.706 255.352C243.327 255.64 242.882 255.859 242.37 256.008C241.863 256.163 241.309 256.24 240.706 256.24ZM249.869 256.216C249.352 256.216 248.899 256.136 248.509 255.976C248.125 255.816 247.797 255.6 247.525 255.328C247.259 255.056 247.043 254.747 246.877 254.4C246.712 254.048 246.592 253.677 246.517 253.288C246.443 252.893 246.405 252.501 246.405 252.112V247.36H247.589V251.768C247.589 252.243 247.635 252.683 247.725 253.088C247.816 253.493 247.96 253.848 248.157 254.152C248.36 254.451 248.619 254.683 248.933 254.848C249.253 255.013 249.64 255.096 250.093 255.096C250.509 255.096 250.875 255.024 251.189 254.88C251.509 254.736 251.776 254.531 251.989 254.264C252.208 253.992 252.373 253.664 252.485 253.28C252.597 252.891 252.653 252.453 252.653 251.968L253.485 252.152C253.485 253.037 253.331 253.781 253.021 254.384C252.712 254.987 252.285 255.443 251.741 255.752C251.197 256.061 250.573 256.216 249.869 256.216ZM252.773 256V253.872H252.653V247.36H253.829V256H252.773ZM259.945 256.24C259.151 256.24 258.479 256.04 257.929 255.64C257.38 255.235 256.964 254.688 256.681 254C256.399 253.307 256.257 252.531 256.257 251.672C256.257 250.797 256.399 250.019 256.681 249.336C256.969 248.648 257.391 248.107 257.945 247.712C258.5 247.317 259.183 247.12 259.993 247.12C260.783 247.12 261.46 247.32 262.025 247.72C262.591 248.12 263.023 248.664 263.321 249.352C263.625 250.04 263.777 250.813 263.777 251.672C263.777 252.536 263.625 253.312 263.321 254C263.017 254.688 262.58 255.235 262.009 255.64C261.439 256.04 260.751 256.24 259.945 256.24ZM256.057 259.84V247.36H257.113V253.864H257.241V259.84H256.057ZM259.825 255.144C260.428 255.144 260.929 254.992 261.329 254.688C261.729 254.384 262.028 253.971 262.225 253.448C262.428 252.92 262.529 252.328 262.529 251.672C262.529 251.021 262.431 250.435 262.233 249.912C262.036 249.389 261.735 248.976 261.329 248.672C260.929 248.368 260.42 248.216 259.801 248.216C259.199 248.216 258.697 248.363 258.297 248.656C257.903 248.949 257.607 249.357 257.409 249.88C257.212 250.397 257.113 250.995 257.113 251.672C257.113 252.339 257.212 252.936 257.409 253.464C257.607 253.987 257.905 254.397 258.305 254.696C258.705 254.995 259.212 255.144 259.825 255.144ZM269.414 256.24C268.619 256.24 267.947 256.04 267.398 255.64C266.849 255.235 266.433 254.688 266.15 254C265.867 253.307 265.726 252.531 265.726 251.672C265.726 250.797 265.867 250.019 266.15 249.336C266.438 248.648 266.859 248.107 267.414 247.712C267.969 247.317 268.651 247.12 269.462 247.12C270.251 247.12 270.929 247.32 271.494 247.72C272.059 248.12 272.491 248.664 272.79 249.352C273.094 250.04 273.246 250.813 273.246 251.672C273.246 252.536 273.094 253.312 272.79 254C272.486 254.688 272.049 255.235 271.478 255.64C270.907 256.04 270.219 256.24 269.414 256.24ZM265.526 259.84V247.36H266.582V253.864H266.71V259.84H265.526ZM269.294 255.144C269.897 255.144 270.398 254.992 270.798 254.688C271.198 254.384 271.497 253.971 271.694 253.448C271.897 252.92 271.998 252.328 271.998 251.672C271.998 251.021 271.899 250.435 271.702 249.912C271.505 249.389 271.203 248.976 270.798 248.672C270.398 248.368 269.889 248.216 269.27 248.216C268.667 248.216 268.166 248.363 267.766 248.656C267.371 248.949 267.075 249.357 266.878 249.88C266.681 250.397 266.582 250.995 266.582 251.672C266.582 252.339 266.681 252.936 266.878 253.464C267.075 253.987 267.374 254.397 267.774 254.696C268.174 254.995 268.681 255.144 269.294 255.144ZM278.611 256.24C277.752 256.24 277.019 256.045 276.411 255.656C275.803 255.267 275.336 254.728 275.011 254.04C274.685 253.352 274.523 252.563 274.523 251.672C274.523 250.765 274.688 249.971 275.019 249.288C275.349 248.605 275.819 248.075 276.427 247.696C277.04 247.312 277.768 247.12 278.611 247.12C279.475 247.12 280.211 247.315 280.819 247.704C281.432 248.088 281.899 248.624 282.219 249.312C282.544 249.995 282.707 250.781 282.707 251.672C282.707 252.579 282.544 253.376 282.219 254.064C281.893 254.747 281.424 255.28 280.811 255.664C280.197 256.048 279.464 256.24 278.611 256.24ZM278.611 255.112C279.571 255.112 280.285 254.795 280.755 254.16C281.224 253.52 281.459 252.691 281.459 251.672C281.459 250.627 281.221 249.795 280.747 249.176C280.277 248.557 279.565 248.248 278.611 248.248C277.965 248.248 277.432 248.395 277.011 248.688C276.595 248.976 276.283 249.379 276.075 249.896C275.872 250.408 275.771 251 275.771 251.672C275.771 252.712 276.011 253.547 276.491 254.176C276.971 254.8 277.677 255.112 278.611 255.112ZM284.472 256V247.36H285.528V249.44L285.32 249.168C285.416 248.912 285.541 248.677 285.696 248.464C285.85 248.245 286.018 248.067 286.2 247.928C286.424 247.731 286.685 247.581 286.984 247.48C287.282 247.373 287.584 247.312 287.888 247.296C288.192 247.275 288.469 247.296 288.72 247.36V248.464C288.405 248.384 288.061 248.365 287.688 248.408C287.314 248.451 286.97 248.6 286.656 248.856C286.368 249.08 286.152 249.349 286.008 249.664C285.864 249.973 285.768 250.304 285.72 250.656C285.672 251.003 285.648 251.347 285.648 251.688V256H284.472ZM294.941 256C294.456 256.101 293.976 256.141 293.501 256.12C293.032 256.099 292.611 255.997 292.237 255.816C291.869 255.635 291.589 255.352 291.397 254.968C291.243 254.648 291.157 254.325 291.141 254C291.131 253.669 291.125 253.293 291.125 252.872V244.96H292.293V252.824C292.293 253.187 292.296 253.491 292.301 253.736C292.312 253.976 292.368 254.189 292.469 254.376C292.661 254.733 292.965 254.947 293.381 255.016C293.803 255.085 294.323 255.069 294.941 254.968V256ZM289.277 248.368V247.36H294.941V248.368H289.277ZM299.987 256.24C299.144 256.24 298.414 256.053 297.795 255.68C297.182 255.307 296.704 254.781 296.363 254.104C296.022 253.427 295.851 252.632 295.851 251.72C295.851 250.776 296.019 249.96 296.355 249.272C296.691 248.584 297.163 248.053 297.771 247.68C298.384 247.307 299.107 247.12 299.939 247.12C300.792 247.12 301.52 247.317 302.123 247.712C302.726 248.101 303.182 248.661 303.491 249.392C303.8 250.123 303.942 250.995 303.915 252.008H302.715V251.592C302.694 250.472 302.451 249.627 301.987 249.056C301.528 248.485 300.856 248.2 299.971 248.2C299.043 248.2 298.331 248.501 297.835 249.104C297.344 249.707 297.099 250.565 297.099 251.68C297.099 252.768 297.344 253.613 297.835 254.216C298.331 254.813 299.032 255.112 299.939 255.112C300.558 255.112 301.096 254.971 301.555 254.688C302.019 254.4 302.384 253.987 302.651 253.448L303.747 253.872C303.406 254.624 302.902 255.208 302.235 255.624C301.574 256.035 300.824 256.24 299.987 256.24ZM296.683 252.008V251.024H303.283V252.008H296.683ZM309.042 256.24C308.237 256.24 307.549 256.04 306.978 255.64C306.408 255.235 305.97 254.688 305.666 254C305.362 253.312 305.21 252.536 305.21 251.672C305.21 250.813 305.36 250.04 305.658 249.352C305.962 248.664 306.397 248.12 306.962 247.72C307.528 247.32 308.205 247.12 308.994 247.12C309.805 247.12 310.488 247.317 311.042 247.712C311.597 248.107 312.016 248.648 312.298 249.336C312.586 250.019 312.73 250.797 312.73 251.672C312.73 252.531 312.589 253.307 312.306 254C312.024 254.688 311.608 255.235 311.058 255.64C310.509 256.04 309.837 256.24 309.042 256.24ZM309.162 255.144C309.776 255.144 310.282 254.995 310.682 254.696C311.082 254.397 311.381 253.987 311.578 253.464C311.776 252.936 311.874 252.339 311.874 251.672C311.874 250.995 311.776 250.397 311.578 249.88C311.381 249.357 311.082 248.949 310.682 248.656C310.288 248.363 309.789 248.216 309.186 248.216C308.568 248.216 308.056 248.368 307.65 248.672C307.245 248.976 306.944 249.389 306.746 249.912C306.554 250.435 306.458 251.021 306.458 251.672C306.458 252.328 306.557 252.92 306.754 253.448C306.957 253.971 307.258 254.384 307.658 254.688C308.058 254.992 308.56 255.144 309.162 255.144ZM311.874 256V249.496H311.746V244.48H312.93V256H311.874ZM315.815 254.72V253.352H317.183V254.72H315.815ZM315.823 250.008V248.64H317.191V250.008H315.823ZM323.159 256V244.48H327.607C327.719 244.48 327.844 244.485 327.983 244.496C328.127 244.501 328.271 244.517 328.415 244.544C329.018 244.635 329.527 244.845 329.943 245.176C330.364 245.501 330.682 245.912 330.895 246.408C331.114 246.904 331.223 247.453 331.223 248.056C331.223 248.653 331.114 249.2 330.895 249.696C330.676 250.192 330.356 250.605 329.935 250.936C329.519 251.261 329.012 251.469 328.415 251.56C328.271 251.581 328.127 251.597 327.983 251.608C327.844 251.619 327.719 251.624 327.607 251.624H324.335V256H323.159ZM324.335 250.504H327.575C327.671 250.504 327.783 250.499 327.911 250.488C328.039 250.477 328.164 250.459 328.287 250.432C328.682 250.347 329.004 250.184 329.255 249.944C329.511 249.704 329.7 249.419 329.823 249.088C329.951 248.757 330.015 248.413 330.015 248.056C330.015 247.699 329.951 247.355 329.823 247.024C329.7 246.688 329.511 246.4 329.255 246.16C329.004 245.92 328.682 245.757 328.287 245.672C328.164 245.645 328.039 245.629 327.911 245.624C327.783 245.613 327.671 245.608 327.575 245.608H324.335V250.504ZM332.815 256V244.48H336.311C336.434 244.48 336.642 244.483 336.935 244.488C337.234 244.493 337.519 244.515 337.791 244.552C338.666 244.675 339.397 245 339.983 245.528C340.57 246.056 341.01 246.728 341.303 247.544C341.597 248.36 341.743 249.259 341.743 250.24C341.743 251.221 341.597 252.12 341.303 252.936C341.01 253.752 340.57 254.424 339.983 254.952C339.397 255.48 338.666 255.805 337.791 255.928C337.525 255.96 337.239 255.981 336.935 255.992C336.631 255.997 336.423 256 336.311 256H332.815ZM334.031 254.872H336.311C336.53 254.872 336.765 254.867 337.015 254.856C337.271 254.84 337.49 254.813 337.671 254.776C338.343 254.659 338.885 254.387 339.295 253.96C339.711 253.533 340.015 253 340.207 252.36C340.399 251.715 340.495 251.008 340.495 250.24C340.495 249.467 340.399 248.757 340.207 248.112C340.015 247.467 339.711 246.933 339.295 246.512C338.879 246.091 338.338 245.821 337.671 245.704C337.49 245.667 337.269 245.643 337.007 245.632C336.751 245.616 336.519 245.608 336.311 245.608H334.031V254.872ZM343.565 256V244.48H350.181V245.656H344.741V249.656H349.221V250.824H344.741V256H343.565Z"
        fill="#6D6D6D" />
    <path opacity="0.8"
        d="M245.844 292.24C244.692 292.24 243.705 291.989 242.884 291.488C242.062 290.981 241.43 290.277 240.988 289.376C240.55 288.475 240.332 287.429 240.332 286.24C240.332 285.051 240.55 284.005 240.988 283.104C241.43 282.203 242.062 281.501 242.884 281C243.705 280.493 244.692 280.24 245.844 280.24C246.996 280.24 247.982 280.493 248.804 281C249.63 281.501 250.262 282.203 250.7 283.104C251.142 284.005 251.364 285.051 251.364 286.24C251.364 287.429 251.142 288.475 250.7 289.376C250.262 290.277 249.63 290.981 248.804 291.488C247.982 291.989 246.996 292.24 245.844 292.24ZM245.844 290.424C246.617 290.429 247.26 290.259 247.772 289.912C248.289 289.565 248.676 289.077 248.932 288.448C249.193 287.819 249.324 287.083 249.324 286.24C249.324 285.397 249.193 284.667 248.932 284.048C248.676 283.424 248.289 282.939 247.772 282.592C247.26 282.245 246.617 282.067 245.844 282.056C245.07 282.051 244.428 282.221 243.916 282.568C243.404 282.915 243.017 283.403 242.756 284.032C242.5 284.661 242.372 285.397 242.372 286.24C242.372 287.083 242.5 287.816 242.756 288.44C243.012 289.059 243.396 289.541 243.908 289.888C244.425 290.235 245.07 290.413 245.844 290.424ZM252.956 292V283.36H254.66V285.464L254.452 285.192C254.559 284.904 254.7 284.643 254.876 284.408C255.057 284.168 255.273 283.971 255.524 283.816C255.737 283.672 255.972 283.56 256.228 283.48C256.489 283.395 256.756 283.344 257.028 283.328C257.3 283.307 257.564 283.317 257.82 283.36V285.16C257.564 285.085 257.268 285.061 256.932 285.088C256.601 285.115 256.303 285.208 256.036 285.368C255.769 285.512 255.551 285.696 255.38 285.92C255.215 286.144 255.092 286.4 255.012 286.688C254.932 286.971 254.892 287.277 254.892 287.608V292H252.956ZM262.55 292V280.48H267.118C267.896 280.48 268.534 280.637 269.03 280.952C269.531 281.261 269.902 281.659 270.142 282.144C270.387 282.629 270.51 283.131 270.51 283.648C270.51 284.283 270.358 284.821 270.054 285.264C269.755 285.707 269.347 286.005 268.83 286.16V285.76C269.555 285.925 270.104 286.269 270.478 286.792C270.856 287.315 271.046 287.909 271.046 288.576C271.046 289.259 270.915 289.856 270.654 290.368C270.392 290.88 270.003 291.28 269.486 291.568C268.974 291.856 268.339 292 267.582 292H262.55ZM264.502 290.184H267.342C267.678 290.184 267.979 290.117 268.246 289.984C268.512 289.845 268.72 289.653 268.87 289.408C269.024 289.157 269.102 288.861 269.102 288.52C269.102 288.211 269.035 287.933 268.902 287.688C268.768 287.443 268.574 287.248 268.318 287.104C268.062 286.955 267.755 286.88 267.398 286.88H264.502V290.184ZM264.502 285.08H267.094C267.371 285.08 267.619 285.027 267.838 284.92C268.056 284.813 268.23 284.656 268.358 284.448C268.486 284.24 268.55 283.984 268.55 283.68C268.55 283.28 268.422 282.947 268.166 282.68C267.91 282.413 267.552 282.28 267.094 282.28H264.502V285.08ZM272.643 292V283.36H274.347V285.464L274.139 285.192C274.246 284.904 274.387 284.643 274.563 284.408C274.745 284.168 274.961 283.971 275.211 283.816C275.425 283.672 275.659 283.56 275.915 283.48C276.177 283.395 276.443 283.344 276.715 283.328C276.987 283.307 277.251 283.317 277.507 283.36V285.16C277.251 285.085 276.955 285.061 276.619 285.088C276.289 285.115 275.99 285.208 275.723 285.368C275.457 285.512 275.238 285.696 275.067 285.92C274.902 286.144 274.779 286.4 274.699 286.688C274.619 286.971 274.579 287.277 274.579 287.608V292H272.643ZM282.694 292.24C281.83 292.24 281.075 292.045 280.43 291.656C279.784 291.267 279.283 290.731 278.926 290.048C278.574 289.36 278.398 288.571 278.398 287.68C278.398 286.773 278.579 285.979 278.942 285.296C279.304 284.613 279.808 284.08 280.454 283.696C281.099 283.312 281.846 283.12 282.694 283.12C283.563 283.12 284.32 283.315 284.966 283.704C285.611 284.093 286.112 284.632 286.47 285.32C286.827 286.003 287.006 286.789 287.006 287.68C287.006 288.576 286.824 289.368 286.462 290.056C286.104 290.739 285.603 291.275 284.958 291.664C284.312 292.048 283.558 292.24 282.694 292.24ZM282.694 290.432C283.462 290.432 284.032 290.176 284.406 289.664C284.779 289.152 284.966 288.491 284.966 287.68C284.966 286.843 284.776 286.176 284.398 285.68C284.019 285.179 283.451 284.928 282.694 284.928C282.176 284.928 281.75 285.045 281.414 285.28C281.083 285.509 280.838 285.832 280.678 286.248C280.518 286.659 280.438 287.136 280.438 287.68C280.438 288.517 280.627 289.187 281.006 289.688C281.39 290.184 281.952 290.432 282.694 290.432ZM290.296 292L287.656 283.344L289.544 283.36L291.232 288.904L292.944 283.36H294.568L296.272 288.904L297.968 283.36H299.856L297.216 292H295.712L293.752 286.056L291.8 292H290.296ZM304.323 292.24C303.257 292.24 302.39 292 301.723 291.52C301.057 291.04 300.651 290.365 300.507 289.496L302.475 289.192C302.577 289.619 302.801 289.955 303.147 290.2C303.494 290.445 303.931 290.568 304.459 290.568C304.923 290.568 305.281 290.477 305.531 290.296C305.787 290.109 305.915 289.856 305.915 289.536C305.915 289.339 305.867 289.181 305.771 289.064C305.681 288.941 305.478 288.824 305.163 288.712C304.849 288.6 304.366 288.459 303.715 288.288C302.99 288.096 302.414 287.891 301.987 287.672C301.561 287.448 301.254 287.184 301.067 286.88C300.881 286.576 300.787 286.208 300.787 285.776C300.787 285.237 300.929 284.768 301.211 284.368C301.494 283.968 301.889 283.661 302.395 283.448C302.902 283.229 303.499 283.12 304.187 283.12C304.859 283.12 305.454 283.224 305.971 283.432C306.494 283.64 306.915 283.936 307.235 284.32C307.555 284.704 307.753 285.155 307.827 285.672L305.859 286.024C305.811 285.656 305.643 285.365 305.355 285.152C305.073 284.939 304.694 284.819 304.219 284.792C303.766 284.765 303.401 284.835 303.123 285C302.846 285.16 302.707 285.387 302.707 285.68C302.707 285.845 302.763 285.987 302.875 286.104C302.987 286.221 303.211 286.339 303.547 286.456C303.889 286.573 304.395 286.717 305.067 286.888C305.755 287.064 306.305 287.267 306.715 287.496C307.131 287.72 307.43 287.989 307.611 288.304C307.798 288.619 307.891 289 307.891 289.448C307.891 290.317 307.574 291 306.939 291.496C306.31 291.992 305.438 292.24 304.323 292.24ZM313.571 292.24C312.697 292.24 311.929 292.051 311.267 291.672C310.606 291.293 310.089 290.768 309.715 290.096C309.347 289.424 309.163 288.651 309.163 287.776C309.163 286.832 309.345 286.013 309.707 285.32C310.07 284.621 310.574 284.08 311.219 283.696C311.865 283.312 312.611 283.12 313.459 283.12C314.355 283.12 315.115 283.331 315.739 283.752C316.369 284.168 316.835 284.757 317.139 285.52C317.443 286.283 317.558 287.181 317.483 288.216H315.571V287.512C315.566 286.573 315.401 285.888 315.075 285.456C314.75 285.024 314.238 284.808 313.539 284.808C312.75 284.808 312.163 285.053 311.779 285.544C311.395 286.029 311.203 286.741 311.203 287.68C311.203 288.555 311.395 289.232 311.779 289.712C312.163 290.192 312.723 290.432 313.459 290.432C313.934 290.432 314.342 290.328 314.683 290.12C315.03 289.907 315.297 289.6 315.483 289.2L317.387 289.776C317.057 290.555 316.545 291.16 315.851 291.592C315.163 292.024 314.403 292.24 313.571 292.24ZM310.595 288.216V286.76H316.539V288.216H310.595Z"
        fill="#0652DD" />
    <rect x="1" y="1" width="556" height="398" rx="23" stroke="#434343" stroke-width="2" stroke-dasharray="16 16" />
</svg>