<?xml version="1.0" encoding="UTF-8" standalone="no"?>
<!-- Created with Inkscape (http://www.inkscape.org/) -->

<svg
   width="129.11664mm"
   height="141.02295mm"
   viewBox="0 0 129.11664 141.02295"
   version="1.1"
   id="svg5"
   xml:space="preserve"
   inkscape:export-filename="title.png"
   inkscape:export-xdpi="96"
   inkscape:export-ydpi="96"
   xmlns:inkscape="http://www.inkscape.org/namespaces/inkscape"
   xmlns:sodipodi="http://sodipodi.sourceforge.net/DTD/sodipodi-0.dtd"
   xmlns="http://www.w3.org/2000/svg"
   xmlns:svg="http://www.w3.org/2000/svg"><sodipodi:namedview
     id="namedview7"
     pagecolor="#ffffff"
     bordercolor="#000000"
     borderopacity="0.25"
     inkscape:showpageshadow="2"
     inkscape:pageopacity="0.0"
     inkscape:pagecheckerboard="0"
     inkscape:deskcolor="#d1d1d1"
     inkscape:document-units="mm"
     showgrid="false" /><defs
     id="defs2" /><g
     inkscape:label="Layer 1"
     inkscape:groupmode="layer"
     id="layer1"
     transform="translate(879.74721,1421.5494)"><g
       style="fill:none"
       id="g15937"
       transform="matrix(0.26458333,0,0,0.26458333,-879.74723,-1421.5494)"><rect
         width="488"
         height="533"
         rx="8"
         fill="#e3e4fe"
         id="rect15718"
         x="0"
         y="0" /><path
         d="M 95.2836,82.2836 V 258.716 H 235.716 V 82.2836 Z"
         fill="#ffffff"
         stroke="#dcdcdc"
         stroke-width="0.567259"
         id="path15720"
         style="stroke:none" /><path
         d="m 221.896,111.909 h -66.219 c -2.327,0 -4.232,-1.905 -4.232,-4.235 0,-2.328 1.905,-4.232 4.232,-4.232 h 66.219 c 2.33,0 4.235,1.904 4.235,4.232 0,2.33 -1.905,4.235 -4.235,4.235"
         fill="#dcdcdc"
         id="path15722" /><path
         d="m 221.9,124.304 h -49.738 c -2.33,0 -4.234,-1.907 -4.234,-4.234 0,-2.328 1.904,-4.233 4.234,-4.233 H 221.9 c 2.327,0 4.232,1.905 4.232,4.233 0,2.327 -1.905,4.234 -4.232,4.234 z"
         fill="#dcdcdc"
         id="path15724" /><path
         d="m 226.654,151.556 h -45.347 c -0.506,0 -0.92,-1.018 -0.92,-2.262 0,-1.244 0.414,-2.262 0.92,-2.262 h 45.347 c 0.506,0 0.92,1.018 0.92,2.262 0,1.244 -0.414,2.262 -0.92,2.262 z"
         fill="#dcdcdc"
         id="path15726" /><path
         d="m 149.132,151.556 h -45.346 c -0.507,0 -0.921,-1.018 -0.921,-2.262 0,-1.244 0.414,-2.262 0.921,-2.262 h 45.346 c 0.506,0 0.92,1.018 0.92,2.262 0,1.244 -0.414,2.262 -0.92,2.262 z"
         fill="#dcdcdc"
         id="path15728" /><path
         d="m 183.437,164.786 h -79.03 c -0.882,0 -1.604,-1.224 -1.604,-2.719 0,-1.496 0.722,-2.719 1.604,-2.719 h 79.03 c 0.882,0 1.604,1.223 1.604,2.719 0,1.495 -0.722,2.719 -1.604,2.719 z"
         fill="#dcdcdc"
         id="path15730" /><path
         d="M 226.829,164.562 H 190.12 c -0.41,0 -0.745,-1.145 -0.745,-2.544 0,-1.4 0.335,-2.545 0.745,-2.545 h 36.709 c 0.41,0 0.745,1.145 0.745,2.545 0,1.399 -0.335,2.544 -0.745,2.544 z"
         fill="#dcdcdc"
         id="path15732" /><path
         d="m 187.557,176.872 h -83.068 c -0.927,0 -1.686,-0.952 -1.686,-2.115 0,-1.163 0.759,-2.115 1.686,-2.115 h 83.068 c 0.927,0 1.686,0.952 1.686,2.115 0,1.163 -0.759,2.115 -1.686,2.115 z"
         fill="#dcdcdc"
         id="path15734" /><path
         d="m 226.927,177.003 h -31.851 c -0.355,0 -0.646,-1.017 -0.646,-2.262 0,-1.244 0.291,-2.262 0.646,-2.262 h 31.851 c 0.355,0 0.646,1.018 0.646,2.262 0,1.245 -0.291,2.262 -0.646,2.262 z"
         fill="#dcdcdc"
         id="path15736" /><path
         d="m 195.209,190.166 h -90.568 c -1.011,0 -1.838,-1.224 -1.838,-2.719 0,-1.496 0.827,-2.719 1.838,-2.719 h 90.568 c 1.011,0 1.838,1.223 1.838,2.719 0,1.495 -0.827,2.719 -1.838,2.719 z"
         fill="#dcdcdc"
         id="path15738" /><path
         d="m 227.09,190.01 h -23.752 c -0.266,0 -0.483,-1.145 -0.483,-2.545 0,-1.4 0.217,-2.545 0.483,-2.545 h 23.752 c 0.266,0 0.483,1.145 0.483,2.545 0,1.4 -0.217,2.545 -0.483,2.545 z"
         fill="#dcdcdc"
         id="path15740" /><path
         d="M 207.569,202.856 H 104.887 c -1.146,0 -2.084,-1.088 -2.084,-2.417 0,-1.33 0.938,-2.417 2.084,-2.417 h 102.682 c 1.146,0 2.084,1.087 2.084,2.417 0,1.329 -0.938,2.417 -2.084,2.417 z"
         fill="#dcdcdc"
         id="path15742" /><path
         d="m 227.311,203.016 h -12.956 c -0.145,0 -0.263,-1.145 -0.263,-2.545 0,-1.399 0.118,-2.544 0.263,-2.544 h 12.956 c 0.145,0 0.263,1.145 0.263,2.544 0,1.4 -0.118,2.545 -0.263,2.545 z"
         fill="#dcdcdc"
         id="path15744" /><path
         d="m 121.048,228.236 h -17.882 c -0.2,0 -0.363,-1.088 -0.363,-2.417 0,-1.33 0.163,-2.417 0.363,-2.417 h 17.882 c 0.2,0 0.363,1.087 0.363,2.417 0,1.329 -0.163,2.417 -0.363,2.417 z"
         fill="#dcdcdc"
         id="path15746" /><path
         d="m 135.913,240.904 h -32.39 c -0.362,0 -0.658,-1.147 -0.658,-2.546 0,-1.399 0.296,-2.543 0.658,-2.543 h 32.39 c 0.362,0 0.657,1.144 0.657,2.543 0,1.399 -0.295,2.546 -0.657,2.546 z"
         fill="#dcdcdc"
         id="path15748" /><rect
         x="95"
         y="82"
         width="141"
         height="177"
         rx="4.8493199"
         stroke="#000000"
         stroke-width="20"
         mask="url(#path-2-inside-1_1606_88401)"
         id="rect15750"
         style="stroke:none" /><path
         d="M 252.284,275.284 V 451.716 H 392.716 V 275.284 Z"
         fill="#ffffff"
         stroke="#dcdcdc"
         stroke-width="0.567259"
         id="path15752"
         style="stroke:none" /><path
         d="m 378.896,304.909 h -66.219 c -2.327,0 -4.232,-1.905 -4.232,-4.235 0,-2.328 1.905,-4.232 4.232,-4.232 h 66.219 c 2.33,0 4.235,1.904 4.235,4.232 0,2.33 -1.905,4.235 -4.235,4.235"
         fill="#dcdcdc"
         id="path15754" /><path
         d="m 378.9,317.304 h -49.738 c -2.33,0 -4.234,-1.907 -4.234,-4.234 0,-2.328 1.904,-4.233 4.234,-4.233 H 378.9 c 2.327,0 4.232,1.905 4.232,4.233 0,2.327 -1.905,4.234 -4.232,4.234 z"
         fill="#dcdcdc"
         id="path15756" /><path
         d="m 383.654,344.556 h -45.347 c -0.506,0 -0.92,-1.018 -0.92,-2.262 0,-1.244 0.414,-2.262 0.92,-2.262 h 45.347 c 0.506,0 0.92,1.018 0.92,2.262 0,1.244 -0.414,2.262 -0.92,2.262 z"
         fill="#dcdcdc"
         id="path15758" /><path
         d="m 306.132,344.556 h -45.346 c -0.507,0 -0.921,-1.018 -0.921,-2.262 0,-1.244 0.414,-2.262 0.921,-2.262 h 45.346 c 0.506,0 0.92,1.018 0.92,2.262 0,1.244 -0.414,2.262 -0.92,2.262 z"
         fill="#dcdcdc"
         id="path15760" /><path
         d="m 340.437,357.786 h -79.03 c -0.882,0 -1.604,-1.224 -1.604,-2.719 0,-1.496 0.722,-2.719 1.604,-2.719 h 79.03 c 0.882,0 1.604,1.223 1.604,2.719 0,1.495 -0.722,2.719 -1.604,2.719 z"
         fill="#dcdcdc"
         id="path15762" /><path
         d="M 383.829,357.562 H 347.12 c -0.41,0 -0.745,-1.145 -0.745,-2.544 0,-1.4 0.335,-2.545 0.745,-2.545 h 36.709 c 0.41,0 0.745,1.145 0.745,2.545 0,1.399 -0.335,2.544 -0.745,2.544 z"
         fill="#dcdcdc"
         id="path15764" /><path
         d="m 344.557,369.872 h -83.068 c -0.927,0 -1.686,-0.952 -1.686,-2.115 0,-1.163 0.759,-2.115 1.686,-2.115 h 83.068 c 0.927,0 1.686,0.952 1.686,2.115 0,1.163 -0.759,2.115 -1.686,2.115 z"
         fill="#dcdcdc"
         id="path15766" /><path
         d="m 383.927,370.003 h -31.851 c -0.355,0 -0.646,-1.017 -0.646,-2.262 0,-1.244 0.291,-2.262 0.646,-2.262 h 31.851 c 0.355,0 0.646,1.018 0.646,2.262 0,1.245 -0.291,2.262 -0.646,2.262 z"
         fill="#dcdcdc"
         id="path15768" /><path
         d="m 352.209,383.166 h -90.568 c -1.011,0 -1.838,-1.224 -1.838,-2.719 0,-1.496 0.827,-2.719 1.838,-2.719 h 90.568 c 1.011,0 1.838,1.223 1.838,2.719 0,1.495 -0.827,2.719 -1.838,2.719 z"
         fill="#dcdcdc"
         id="path15770" /><path
         d="m 384.09,383.01 h -23.752 c -0.266,0 -0.483,-1.145 -0.483,-2.545 0,-1.4 0.217,-2.545 0.483,-2.545 h 23.752 c 0.266,0 0.483,1.145 0.483,2.545 0,1.4 -0.217,2.545 -0.483,2.545 z"
         fill="#dcdcdc"
         id="path15772" /><path
         d="M 364.569,395.856 H 261.887 c -1.146,0 -2.084,-1.088 -2.084,-2.417 0,-1.33 0.938,-2.417 2.084,-2.417 h 102.682 c 1.146,0 2.084,1.087 2.084,2.417 0,1.329 -0.938,2.417 -2.084,2.417 z"
         fill="#dcdcdc"
         id="path15774" /><path
         d="m 384.311,396.016 h -12.956 c -0.145,0 -0.263,-1.145 -0.263,-2.545 0,-1.399 0.118,-2.544 0.263,-2.544 h 12.956 c 0.145,0 0.263,1.145 0.263,2.544 0,1.4 -0.118,2.545 -0.263,2.545 z"
         fill="#dcdcdc"
         id="path15776" /><path
         d="m 278.048,421.236 h -17.882 c -0.2,0 -0.363,-1.088 -0.363,-2.417 0,-1.33 0.163,-2.417 0.363,-2.417 h 17.882 c 0.2,0 0.363,1.087 0.363,2.417 0,1.329 -0.163,2.417 -0.363,2.417 z"
         fill="#dcdcdc"
         id="path15778" /><path
         d="m 292.913,433.904 h -32.39 c -0.362,0 -0.658,-1.147 -0.658,-2.546 0,-1.399 0.296,-2.543 0.658,-2.543 h 32.39 c 0.362,0 0.657,1.144 0.657,2.543 0,1.399 -0.295,2.546 -0.657,2.546 z"
         fill="#dcdcdc"
         id="path15780" /><rect
         x="252"
         y="275"
         width="141"
         height="177"
         rx="4.8493199"
         stroke="#000000"
         stroke-width="20"
         mask="url(#path-18-inside-2_1606_88401)"
         id="rect15782"
         style="stroke:none" /><path
         d="M 252.284,82.2836 V 258.716 H 392.716 V 82.2836 Z"
         fill="#ffffff"
         stroke="#dcdcdc"
         stroke-width="0.567259"
         id="path15784"
         style="stroke:none" /><path
         d="m 343.734,151.556 h -45.347 c -0.506,0 -0.92,-1.018 -0.92,-2.262 0,-1.244 0.414,-2.262 0.92,-2.262 h 45.347 c 0.506,0 0.92,1.018 0.92,2.262 0,1.244 -0.414,2.262 -0.92,2.262 z"
         fill="#dcdcdc"
         id="path15786" /><path
         d="m 306.132,151.556 h -45.346 c -0.507,0 -0.921,-1.018 -0.921,-2.262 0,-1.244 0.414,-2.262 0.921,-2.262 h 45.346 c 0.506,0 0.92,1.018 0.92,2.262 0,1.244 -0.414,2.262 -0.92,2.262 z"
         fill="#dcdcdc"
         id="path15788" /><path
         d="m 306.132,138.524 h -45.346 c -0.507,0 -0.921,-1.018 -0.921,-2.262 0,-1.244 0.414,-2.262 0.921,-2.262 h 45.346 c 0.506,0 0.92,1.018 0.92,2.262 0,1.244 -0.414,2.262 -0.92,2.262 z"
         fill="#dcdcdc"
         id="path15790" /><path
         d="m 306.132,125.524 h -45.346 c -0.507,0 -0.921,-1.018 -0.921,-2.262 0,-1.244 0.414,-2.262 0.921,-2.262 h 45.346 c 0.506,0 0.92,1.018 0.92,2.262 0,1.244 -0.414,2.262 -0.92,2.262 z"
         fill="#dcdcdc"
         id="path15792" /><path
         d="m 340.437,164.786 h -79.03 c -0.882,0 -1.604,-1.224 -1.604,-2.719 0,-1.496 0.722,-2.719 1.604,-2.719 h 79.03 c 0.882,0 1.604,1.223 1.604,2.719 0,1.495 -0.722,2.719 -1.604,2.719 z"
         fill="#dcdcdc"
         id="path15794" /><path
         d="M 343.909,164.562 H 307.2 c -0.41,0 -0.745,-1.145 -0.745,-2.544 0,-1.4 0.335,-2.545 0.745,-2.545 h 36.709 c 0.41,0 0.745,1.145 0.745,2.545 0,1.399 -0.335,2.544 -0.745,2.544 z"
         fill="#dcdcdc"
         id="path15796" /><path
         d="m 344.557,176.872 h -83.068 c -0.927,0 -1.686,-0.952 -1.686,-2.115 0,-1.163 0.759,-2.115 1.686,-2.115 h 83.068 c 0.927,0 1.686,0.952 1.686,2.115 0,1.163 -0.759,2.115 -1.686,2.115 z"
         fill="#dcdcdc"
         id="path15798" /><path
         d="m 344.007,177.003 h -31.851 c -0.355,0 -0.646,-1.017 -0.646,-2.262 0,-1.244 0.291,-2.262 0.646,-2.262 h 31.851 c 0.355,0 0.646,1.018 0.646,2.262 0,1.245 -0.291,2.262 -0.646,2.262 z"
         fill="#dcdcdc"
         id="path15800" /><path
         d="m 334.518,190 h -73.035 c -0.816,0 -1.483,-1.125 -1.483,-2.5 0,-1.375 0.667,-2.5 1.483,-2.5 h 73.035 c 0.815,0 1.482,1.125 1.482,2.5 0,1.375 -0.667,2.5 -1.482,2.5 z"
         fill="#dcdcdc"
         id="path15802" /><path
         d="m 344.171,190.01 h -23.753 c -0.265,0 -0.482,-1.145 -0.482,-2.545 0,-1.4 0.217,-2.545 0.482,-2.545 h 23.753 c 0.265,0 0.482,1.145 0.482,2.545 0,1.4 -0.217,2.545 -0.482,2.545 z"
         fill="#dcdcdc"
         id="path15804" /><path
         d="m 344.323,203 h -82.645 c -0.923,0 -1.678,-1.125 -1.678,-2.5 0,-1.375 0.755,-2.5 1.678,-2.5 h 82.645 c 0.922,0 1.677,1.125 1.677,2.5 0,1.375 -0.755,2.5 -1.677,2.5 z"
         fill="#dcdcdc"
         id="path15806" /><path
         d="m 344.391,203.016 h -12.956 c -0.145,0 -0.263,-1.145 -0.263,-2.545 0,-1.399 0.118,-2.544 0.263,-2.544 h 12.956 c 0.145,0 0.263,1.145 0.263,2.544 0,1.4 -0.118,2.545 -0.263,2.545 z"
         fill="#dcdcdc"
         id="path15808" /><path
         d="m 278.048,228.236 h -17.882 c -0.2,0 -0.363,-1.088 -0.363,-2.417 0,-1.33 0.163,-2.417 0.363,-2.417 h 17.882 c 0.2,0 0.363,1.087 0.363,2.417 0,1.329 -0.163,2.417 -0.363,2.417 z"
         fill="#dcdcdc"
         id="path15810" /><path
         d="m 292.913,240.904 h -32.39 c -0.362,0 -0.658,-1.147 -0.658,-2.546 0,-1.399 0.296,-2.543 0.658,-2.543 h 32.39 c 0.362,0 0.657,1.144 0.657,2.543 0,1.399 -0.295,2.546 -0.657,2.546 z"
         fill="#dcdcdc"
         id="path15812" /><rect
         x="354"
         y="92"
         width="30"
         height="152"
         fill="#d9d9d9"
         id="rect15814" /><path
         d="m 378.944,106.534 h -19.82 c -0.697,0 -1.267,-0.57 -1.267,-1.267 0,-0.697 0.57,-1.267 1.267,-1.267 h 19.82 c 0.697,0 1.267,0.57 1.267,1.267 0,0.697 -0.57,1.267 -1.267,1.267"
         fill="#434343"
         id="path15816" /><path
         d="m 378.945,110.244 h -14.887 c -0.697,0 -1.267,-0.571 -1.267,-1.267 0,-0.697 0.57,-1.267 1.267,-1.267 h 14.887 c 0.697,0 1.267,0.57 1.267,1.267 0,0.696 -0.57,1.267 -1.267,1.267 z"
         fill="#434343"
         id="path15818" /><rect
         x="252"
         y="82"
         width="141"
         height="177"
         rx="4.8493199"
         stroke="#000000"
         stroke-width="20"
         mask="url(#path-34-inside-3_1606_88401)"
         id="rect15820"
         style="stroke:none" /><path
         d="M 95.2836,275.284 V 451.716 H 235.716 V 275.284 Z"
         fill="#ffffff"
         stroke="#dcdcdc"
         stroke-width="0.567259"
         id="path15822"
         style="stroke:none" /><path
         d="m 186.734,344.556 h -45.347 c -0.506,0 -0.92,-1.018 -0.92,-2.262 0,-1.244 0.414,-2.262 0.92,-2.262 h 45.347 c 0.506,0 0.92,1.018 0.92,2.262 0,1.244 -0.414,2.262 -0.92,2.262 z"
         fill="#dcdcdc"
         id="path15824" /><path
         d="m 149.132,344.556 h -45.346 c -0.507,0 -0.921,-1.018 -0.921,-2.262 0,-1.244 0.414,-2.262 0.921,-2.262 h 45.346 c 0.506,0 0.92,1.018 0.92,2.262 0,1.244 -0.414,2.262 -0.92,2.262 z"
         fill="#dcdcdc"
         id="path15826" /><path
         d="m 149.132,331.524 h -45.346 c -0.507,0 -0.921,-1.018 -0.921,-2.262 0,-1.244 0.414,-2.262 0.921,-2.262 h 45.346 c 0.506,0 0.92,1.018 0.92,2.262 0,1.244 -0.414,2.262 -0.92,2.262 z"
         fill="#dcdcdc"
         id="path15828" /><path
         d="m 149.132,318.524 h -45.346 c -0.507,0 -0.921,-1.018 -0.921,-2.262 0,-1.244 0.414,-2.262 0.921,-2.262 h 45.346 c 0.506,0 0.92,1.018 0.92,2.262 0,1.244 -0.414,2.262 -0.92,2.262 z"
         fill="#dcdcdc"
         id="path15830" /><path
         d="m 183.437,357.786 h -79.03 c -0.882,0 -1.604,-1.224 -1.604,-2.719 0,-1.496 0.722,-2.719 1.604,-2.719 h 79.03 c 0.882,0 1.604,1.223 1.604,2.719 0,1.495 -0.722,2.719 -1.604,2.719 z"
         fill="#dcdcdc"
         id="path15832" /><path
         d="M 186.909,357.562 H 150.2 c -0.41,0 -0.745,-1.145 -0.745,-2.544 0,-1.4 0.335,-2.545 0.745,-2.545 h 36.709 c 0.41,0 0.745,1.145 0.745,2.545 0,1.399 -0.335,2.544 -0.745,2.544 z"
         fill="#dcdcdc"
         id="path15834" /><path
         d="m 187.557,369.872 h -83.068 c -0.927,0 -1.686,-0.952 -1.686,-2.115 0,-1.163 0.759,-2.115 1.686,-2.115 h 83.068 c 0.927,0 1.686,0.952 1.686,2.115 0,1.163 -0.759,2.115 -1.686,2.115 z"
         fill="#dcdcdc"
         id="path15836" /><path
         d="m 187.007,370.003 h -31.851 c -0.355,0 -0.646,-1.017 -0.646,-2.262 0,-1.244 0.291,-2.262 0.646,-2.262 h 31.851 c 0.355,0 0.646,1.018 0.646,2.262 0,1.245 -0.291,2.262 -0.646,2.262 z"
         fill="#dcdcdc"
         id="path15838" /><path
         d="m 177.518,383 h -73.035 c -0.816,0 -1.483,-1.125 -1.483,-2.5 0,-1.375 0.667,-2.5 1.483,-2.5 h 73.035 c 0.815,0 1.482,1.125 1.482,2.5 0,1.375 -0.667,2.5 -1.482,2.5 z"
         fill="#dcdcdc"
         id="path15840" /><path
         d="m 187.171,383.01 h -23.753 c -0.265,0 -0.482,-1.145 -0.482,-2.545 0,-1.4 0.217,-2.545 0.482,-2.545 h 23.753 c 0.265,0 0.482,1.145 0.482,2.545 0,1.4 -0.217,2.545 -0.482,2.545 z"
         fill="#dcdcdc"
         id="path15842" /><path
         d="m 187.323,396 h -82.645 c -0.923,0 -1.678,-1.125 -1.678,-2.5 0,-1.375 0.755,-2.5 1.678,-2.5 h 82.645 c 0.922,0 1.677,1.125 1.677,2.5 0,1.375 -0.755,2.5 -1.677,2.5 z"
         fill="#dcdcdc"
         id="path15844" /><path
         d="m 187.391,396.016 h -12.956 c -0.145,0 -0.263,-1.145 -0.263,-2.545 0,-1.399 0.118,-2.544 0.263,-2.544 h 12.956 c 0.145,0 0.263,1.145 0.263,2.544 0,1.4 -0.118,2.545 -0.263,2.545 z"
         fill="#dcdcdc"
         id="path15846" /><path
         d="m 121.048,421.236 h -17.882 c -0.2,0 -0.363,-1.088 -0.363,-2.417 0,-1.33 0.163,-2.417 0.363,-2.417 h 17.882 c 0.2,0 0.363,1.087 0.363,2.417 0,1.329 -0.163,2.417 -0.363,2.417 z"
         fill="#dcdcdc"
         id="path15848" /><path
         d="m 135.913,433.904 h -32.39 c -0.362,0 -0.658,-1.147 -0.658,-2.546 0,-1.399 0.296,-2.543 0.658,-2.543 h 32.39 c 0.362,0 0.657,1.144 0.657,2.543 0,1.399 -0.295,2.546 -0.657,2.546 z"
         fill="#dcdcdc"
         id="path15850" /><rect
         x="197"
         y="285"
         width="30"
         height="152"
         fill="#d9d9d9"
         id="rect15852" /><path
         d="m 221.944,299.534 h -19.82 c -0.697,0 -1.267,-0.57 -1.267,-1.267 0,-0.697 0.57,-1.267 1.267,-1.267 h 19.82 c 0.697,0 1.267,0.57 1.267,1.267 0,0.697 -0.57,1.267 -1.267,1.267"
         fill="#434343"
         id="path15854" /><path
         d="m 221.945,303.244 h -14.887 c -0.697,0 -1.267,-0.571 -1.267,-1.267 0,-0.697 0.57,-1.267 1.267,-1.267 h 14.887 c 0.697,0 1.267,0.57 1.267,1.267 0,0.696 -0.57,1.267 -1.267,1.267 z"
         fill="#434343"
         id="path15856" /><rect
         x="95"
         y="275"
         width="141"
         height="177"
         rx="4.8493199"
         stroke="#000000"
         stroke-width="20"
         mask="url(#path-53-inside-4_1606_88401)"
         id="rect15858"
         style="stroke:none" /></g></g></svg>
