<?xml version="1.0" encoding="UTF-8" standalone="no"?>
<!-- Created with Inkscape (http://www.inkscape.org/) -->

<svg
   width="171.3522mm"
   height="167.2605mm"
   viewBox="0 0 171.3522 167.2605"
   version="1.1"
   id="svg1213"
   xml:space="preserve"
   xmlns="http://www.w3.org/2000/svg"
   xmlns:svg="http://www.w3.org/2000/svg"><defs
     id="defs1210" /><g
     id="layer1"
     transform="translate(-374.92558,-339.21721)"><g
       id="g1265"
       transform="matrix(0.26458333,0,0,0.26458333,374.92404,339.21505)"><path
         d="M 687.3279,276.08691 H 512.81813 a 15.01828,15.01828 0 0 0 -15,15 v 387.85 l -2,0.61005 -42.81006,13.11 a 8.00676,8.00676 0 0 1 -9.98974,-5.31 L 315.678,271.39691 a 8.00313,8.00313 0 0 1 5.31006,-9.99 l 65.97022,-20.2 191.25,-58.54 65.96972,-20.2 a 7.98927,7.98927 0 0 1 9.99024,5.3 l 32.5498,106.32 z"
         transform="translate(-276.18187,-133.91309)"
         fill="#f2f2f2"
         id="path1229"
         style="fill:#ffffff" /><path
         d="m 725.408,274.08691 -39.23,-128.14 a 16.99368,16.99368 0 0 0 -21.23,-11.28 l -92.75,28.39 -191.23973,58.55002 -92.75,28.4 a 17.0152,17.0152 0 0 0 -11.28028,21.23 l 134.08008,437.93 a 17.02661,17.02661 0 0 0 16.26026,12.03 16.78926,16.78926 0 0 0 4.96972,-0.75 l 63.58008,-19.46 2,-0.62 v -2.09 l -2,0.61 -64.16992,19.65 a 15.01489,15.01489 0 0 1 -18.73,-9.95 l -134.06983,-437.94 a 14.97935,14.97935 0 0 1 9.94971,-18.73 l 92.75,-28.4 191.24024,-58.54 92.75,-28.4 a 15.15551,15.15551 0 0 1 4.40966,-0.66 15.01461,15.01461 0 0 1 14.32032,10.61 l 39.0498,127.56 0.62012,2 h 2.08008 z"
         transform="translate(-276.18187,-133.91309)"
         fill="#3f3d56"
         id="path1231" /><path
         d="m 398.86279,261.73389 a 9.0157,9.0157 0 0 1 -8.61133,-6.3667 l -12.88037,-42.07178 a 8.99884,8.99884 0 0 1 5.9712,-11.24023 l 175.939,-53.86377 a 9.00867,9.00867 0 0 1 11.24072,5.9707 l 12.88037,42.07227 a 9.01029,9.01029 0 0 1 -5.9707,11.24072 l -175.93949,53.86377 a 8.976,8.976 0 0 1 -2.6294,0.39502 z"
         transform="translate(-276.18187,-133.91309)"
         fill="#0652dd"
         id="path1233" /><path
         id="circle1235"
         d="m 190.15371,4.9547139 a 20,20 0 0 0 -20,20.0000001 20,20 0 0 0 20,20 20,20 0 0 0 20,-20 20,20 0 0 0 -20,-20.0000001 z m 0,7.3359371 a 12.66462,12.66462 0 0 1 12.66407,12.664063 12.66462,12.66462 0 0 1 -12.66407,12.664063 12.66462,12.66462 0 0 1 -12.66406,-12.664063 12.66462,12.66462 0 0 1 12.66406,-12.664063 z"
         style="fill:#0652dd;fill-opacity:1" /><path
         d="m 878.81836,716.08691 h -338 a 8.50981,8.50981 0 0 1 -8.5,-8.5 v -405 a 8.50951,8.50951 0 0 1 8.5,-8.5 h 338 a 8.50982,8.50982 0 0 1 8.5,8.5 v 405 a 8.51013,8.51013 0 0 1 -8.5,8.5 z"
         transform="translate(-276.18187,-133.91309)"
         fill="#e6e6e6"
         id="path1239"
         style="fill:#ffffff" /><path
         d="m 723.31813,274.08691 h -210.5 a 17.02411,17.02411 0 0 0 -17,17 v 407.8 l 2,-0.61 v -407.19 a 15.01828,15.01828 0 0 1 15,-15 h 211.12012 z m 183.5,0 h -394 a 17.02411,17.02411 0 0 0 -17,17 v 458 a 17.0241,17.0241 0 0 0 17,17 h 394 a 17.0241,17.0241 0 0 0 17,-17 v -458 a 17.02411,17.02411 0 0 0 -17,-17 z m 15,475 a 15.01828,15.01828 0 0 1 -15,15 h -394 a 15.01828,15.01828 0 0 1 -15,-15 v -458 a 15.01828,15.01828 0 0 1 15,-15 h 394 a 15.01828,15.01828 0 0 1 15,15 z"
         transform="translate(-276.18187,-133.91309)"
         fill="#3f3d56"
         id="path1241" /><path
         d="m 801.81836,318.08691 h -184 a 9.01015,9.01015 0 0 1 -9,-9 v -44 a 9.01016,9.01016 0 0 1 9,-9 h 184 a 9.01016,9.01016 0 0 1 9,9 v 44 a 9.01015,9.01015 0 0 1 -9,9 z"
         transform="translate(-276.18187,-133.91309)"
         fill="#0652dd"
         id="path1243" /><path
         id="circle1245"
         d="m 433.63614,85.173465 a 20,20 0 0 0 -20,20.000005 20,20 0 0 0 20,20 20,20 0 0 0 20,-20 20,20 0 0 0 -20,-20.000005 z m 0,7.818359 a 12.18187,12.18187 0 0 1 12.18164,12.181646 12.18187,12.18187 0 0 1 -12.18164,12.18164 12.18187,12.18187 0 0 1 -12.18164,-12.18164 12.18187,12.18187 0 0 1 12.18164,-12.181646 z"
         style="fill:#0652dd;fill-opacity:1" /></g><path
       style="fill:none;stroke:#434343;stroke-width:1.72831;stroke-linecap:round;stroke-linejoin:round;stroke-dasharray:none;stroke-opacity:1"
       id="path1395"
       d="m 470.36053,417.99992 a 12.21496,13.560688 0 0 1 -9.26777,5.48851" /><path
       style="fill:none;stroke:#434343;stroke-width:1.72831;stroke-linecap:round;stroke-linejoin:round;stroke-dasharray:none;stroke-opacity:1"
       id="path2126"
       d="m -510.30789,418.19218 a 12.21496,13.560688 0 0 1 -9.26777,5.48851"
       transform="scale(-1,1)" /><ellipse
       style="fill:#434343;fill-opacity:1;stroke:none;stroke-width:2.06763;stroke-linecap:round;stroke-linejoin:round;stroke-dasharray:none"
       id="path2128"
       cx="467.27631"
       cy="430.6423"
       rx="3.35466"
       ry="4.1391397" /><ellipse
       style="fill:#434343;fill-opacity:1;stroke:none;stroke-width:2.06763;stroke-linecap:round;stroke-linejoin:round;stroke-dasharray:none"
       id="ellipse2184"
       cx="512.95044"
       cy="430.54056"
       rx="3.35466"
       ry="4.1391397" /><path
       style="fill:none;stroke:#434343;stroke-width:1.72831;stroke-linecap:round;stroke-linejoin:round;stroke-dasharray:none;stroke-opacity:1"
       id="ellipse2186"
       d="m 496.12632,440.62526 a 6.2438078,5.1650939 0 0 1 -6.2069,4.12648 6.2438078,5.1650939 0 0 1 -6.05971,-4.27357" /></g></svg>
